<svg width="142" height="142" viewBox="0 0 142 142" fill="none" xmlns="http://www.w3.org/2000/svg">
<path d="M64.0336 21.9833V0.166626C28.6169 3.70829 0.283569 34.2375 0.283569 70.9999C0.283569 107.762 28.6169 138.292 64.0336 141.833V120.017C42.7836 116.617 21.5336 95.9333 21.5336 70.9999C21.5336 46.0666 42.7836 25.3833 64.0336 21.9833V21.9833ZM120.488 63.9166H141.95C138.621 28.5 113.617 3.49579 78.2002 0.166626V21.9833C99.4502 25.0291 117.442 42.6666 120.488 63.9166ZM78.2002 120.017V141.833C113.617 138.504 138.621 113.5 141.95 78.0833H120.488C117.442 99.3333 99.4502 116.971 78.2002 120.017Z" fill="white"/>
<path d="M81.128 41.25L81.128 100.75H60.728L60.728 41.25H81.128Z" fill="white"/>
</svg>
