<svg width="201" height="201" viewBox="0 0 201 201" fill="none" xmlns="http://www.w3.org/2000/svg">
<rect x="0.883179" y="0.674316" width="200" height="200" rx="100" fill="white"/>
<path d="M93.9167 51.9833V30.1666C58.5001 33.7083 30.1667 64.2375 30.1667 101C30.1667 137.762 58.5001 168.292 93.9167 171.833V150.017C72.6667 146.617 51.4167 125.933 51.4167 101C51.4167 76.0666 72.6667 55.3833 93.9167 51.9833V51.9833ZM150.371 93.9166H171.833C168.504 58.5 143.5 33.4958 108.083 30.1666V51.9833C129.333 55.0291 147.325 72.6666 150.371 93.9166ZM108.083 150.017V171.833C143.5 168.504 168.504 143.5 171.833 108.083H150.371C147.325 129.333 129.333 146.971 108.083 150.017Z" fill="#0D0E10"/>
<path d="M111.011 71.25L111.011 130.75H90.6112L90.6112 71.25H111.011Z" fill="#0D0E10"/>
</svg>
