<svg width="200" height="201" viewBox="0 0 200 201" fill="none" xmlns="http://www.w3.org/2000/svg">
<rect y="0.674316" width="200" height="200" rx="100" fill="#0D0E10"/>
<path d="M93.0336 51.9833V30.1666C57.6169 33.7083 29.2836 64.2375 29.2836 101C29.2836 137.762 57.6169 168.292 93.0336 171.833V150.017C71.7836 146.617 50.5336 125.933 50.5336 101C50.5336 76.0666 71.7836 55.3833 93.0336 51.9833V51.9833ZM149.488 93.9166H170.95C167.621 58.5 142.617 33.4958 107.2 30.1666V51.9833C128.45 55.0291 146.442 72.6666 149.488 93.9166ZM107.2 150.017V171.833C142.617 168.504 167.621 143.5 170.95 108.083H149.488C146.442 129.333 128.45 146.971 107.2 150.017Z" fill="white"/>
<path d="M110.128 71.25L110.128 130.75H89.728L89.728 71.25H110.128Z" fill="white"/>
</svg>
