<svg width="22" height="22" viewBox="0 0 22 22" fill="none" xmlns="http://www.w3.org/2000/svg">
<path d="M15.7883 6.35471C16.2336 5.91174 16.2336 5.18987 15.7883 4.7469L14.15 3.10862L14.1523 3.11096C13.7187 2.67737 12.9734 1.93206 11.9187 0.879713C11.4219 0.394557 10.6179 0.399245 10.1258 0.891432L0.896075 10.1141C0.777988 10.2314 0.684269 10.3709 0.620316 10.5245C0.556362 10.6782 0.523438 10.843 0.523438 11.0094C0.523438 11.1758 0.556362 11.3406 0.620316 11.4943C0.684269 11.6479 0.777988 11.7874 0.896075 11.9047L10.1234 21.125C10.3613 21.3625 10.6837 21.4959 11.0199 21.4959C11.3561 21.4959 11.6785 21.3625 11.9164 21.125L15.7859 17.2578C16.2312 16.8149 16.2312 16.093 15.7859 15.65C15.572 15.4372 15.2826 15.3177 14.9808 15.3177C14.6791 15.3177 14.3897 15.4372 14.1758 15.65L11.2461 18.5844C11.1242 18.7063 10.9344 18.7063 10.8125 18.5844L3.44139 11.2203C3.31951 11.0985 3.31951 10.9086 3.44139 10.7867L10.8101 3.42268C10.8195 3.41331 10.8312 3.40628 10.8406 3.3969C10.9625 3.30081 11.1312 3.31018 11.2437 3.42268L14.1781 6.35471C14.6234 6.80003 15.3453 6.80003 15.7883 6.35471ZM8.57654 11.0563C8.57654 11.7164 8.83903 12.3495 9.30626 12.8163C9.77349 13.2831 10.4072 13.5453 11.0679 13.5453C11.7287 13.5453 12.3624 13.2831 12.8296 12.8163C13.2969 12.3495 13.5594 11.7164 13.5594 11.0563C13.5594 10.3961 13.2969 9.76303 12.8296 9.29624C12.3624 8.82945 11.7287 8.56721 11.0679 8.56721C10.4072 8.56721 9.77349 8.82945 9.30626 9.29624C8.83903 9.76303 8.57654 10.3961 8.57654 11.0563ZM21.1437 10.1516L18.2633 7.28518C17.8179 6.84221 17.0961 6.84221 16.6531 7.28753C16.5472 7.39293 16.4632 7.5182 16.4059 7.65616C16.3486 7.79412 16.3191 7.94204 16.3191 8.09143C16.3191 8.24082 16.3486 8.38875 16.4059 8.5267C16.4632 8.66466 16.5472 8.78994 16.6531 8.89534L18.5984 10.8383C18.7203 10.9602 18.7203 11.15 18.5984 11.2719L16.6812 13.1867C16.5754 13.2921 16.4913 13.4174 16.434 13.5554C16.3767 13.6933 16.3472 13.8413 16.3472 13.9907C16.3472 14.14 16.3767 14.288 16.434 14.4259C16.4913 14.5639 16.5754 14.6892 16.6812 14.7946C16.8951 15.0074 17.1846 15.1269 17.4863 15.1269C17.788 15.1269 18.0775 15.0074 18.2914 14.7946L21.1461 11.9422C21.2638 11.8246 21.3571 11.685 21.4207 11.5313C21.4843 11.3775 21.5169 11.2128 21.5167 11.0464C21.5164 10.8801 21.4834 10.7154 21.4194 10.5618C21.3554 10.4083 21.2617 10.2689 21.1437 10.1516Z" fill="#F7DF1E"/>
</svg>
