<svg width="24" height="24" viewBox="0 0 24 24" fill="none" xmlns="http://www.w3.org/2000/svg">
<path d="M4.7055 0.00585938C2.1203 0.00585938 0.00445557 2.12165 0.00445557 4.70691V19.2951C0.00445557 21.8803 2.12025 23.9954 4.7055 23.9954H19.2937C21.8789 23.9954 23.994 21.8803 23.994 19.2951V4.70691C23.994 2.1217 21.8789 0.00585938 19.2937 0.00585938H4.7055ZM5.88789 3.96461C7.12744 3.96461 7.89095 4.77836 7.91452 5.84801C7.91452 6.89405 7.12739 7.73067 5.86391 7.73067H5.84066C4.6247 7.73067 3.83877 6.8941 3.83877 5.84801C3.83877 4.77838 4.64848 3.96461 5.88786 3.96461H5.88789ZM16.5698 8.96405C18.9537 8.96405 20.7408 10.5222 20.7408 13.8705V20.1213H17.1179V14.2896C17.1179 12.8242 16.5936 11.8244 15.2825 11.8244C14.2816 11.8244 13.685 12.4982 13.423 13.1492C13.3274 13.3821 13.3038 13.7074 13.3038 14.0332V20.1213H9.68097C9.68097 20.1213 9.72851 10.2426 9.68097 9.2197H13.3046V10.7635C13.786 10.0207 14.6472 8.96403 16.5698 8.96403V8.96405ZM4.05246 9.22049H7.67534V20.1213H4.05246V9.22049Z" fill="#F7DF1E"/>
</svg>
