<svg width="36" height="36" viewBox="0 0 36 36" fill="none" xmlns="http://www.w3.org/2000/svg">
<path d="M4.50001 28.4999H31.5C31.7734 28.4991 32.0413 28.4237 32.275 28.2818C32.5087 28.14 32.6993 27.9372 32.8263 27.6951C32.9533 27.453 33.0118 27.1809 32.9957 26.908C32.9795 26.6351 32.8892 26.3718 32.7345 26.1464L19.2345 6.64641C18.675 5.83791 17.328 5.83791 16.767 6.64641L3.26701 26.1464C3.11074 26.3713 3.01911 26.6348 3.00205 26.9081C2.985 27.1814 3.04318 27.4542 3.17028 27.6968C3.29737 27.9394 3.48852 28.1425 3.72295 28.2841C3.95738 28.4257 4.22614 28.5003 4.50001 28.4999Z" fill="#F7DF1E"/>
</svg>
