<svg width="103" height="117" viewBox="0 0 103 117" fill="none" xmlns="http://www.w3.org/2000/svg">
<path d="M102.372 0.396973L93.0453 104.875L51.1231 116.498L9.31644 104.892L0 0.396973H102.372Z" fill="#264DE4"/>
<path d="M85.0609 98.2225L93.0309 8.94092H51.1858V107.614L85.0609 98.2225Z" fill="#2965F1"/>
<path d="M21.3577 47.6968L22.5064 60.5125H51.1858V47.6968H21.3577Z" fill="#EBEBEB"/>
<path d="M51.1858 21.7568H51.1415H19.0497L20.2148 34.5728H51.1858V21.7568Z" fill="#EBEBEB"/>
<path d="M51.1858 94.3146V80.9807L51.1296 80.9957L36.8565 77.1416L35.9441 66.9204H29.0085H23.079L24.8745 87.0431L51.1268 94.331L51.1858 94.3146Z" fill="#EBEBEB"/>
<path d="M66.9228 60.5122L65.4352 77.1334L51.1415 80.9913V94.3246L77.4147 87.043L77.6074 84.8778L80.619 51.1379L80.9317 47.6964L83.2454 21.7568H51.1415V34.5728H69.2003L68.0342 47.6964H51.1415V60.5122H66.9228Z" fill="white"/>
</svg>
