<svg width="22" height="20" viewBox="0 0 22 20" fill="none" xmlns="http://www.w3.org/2000/svg">
<path d="M8.00002 20H9.00002V18H8.01102C7.70302 17.994 5.00002 17.827 5.00002 14C5.00002 12.007 4.33502 10.754 3.49802 10C4.33502 9.246 5.00002 7.993 5.00002 6C5.00002 2.173 7.70302 2.006 8.00002 2H9.00002V0H7.99802C6.26902 0.004 3.00002 1.264 3.00002 6C3.00002 8.8 1.32202 8.99 0.986023 9L1.00002 11C1.08202 11 3.00002 11.034 3.00002 14C3.00002 18.736 6.26902 19.996 8.00002 20ZM21 9C20.918 9 19 8.966 19 6C19 1.264 15.731 0.004 14 0H13V2H13.989C14.297 2.006 17 2.173 17 6C17 7.993 17.665 9.246 18.502 10C17.665 10.754 17 12.007 17 14C17 17.827 14.297 17.994 14 18H13V20H14.002C15.731 19.996 19 18.736 19 14C19 11.2 20.678 11.01 21.014 11L21 9Z" fill="#F7DF1E"/>
</svg>
