<svg width="23" height="18" viewBox="0 0 23 18" fill="none" xmlns="http://www.w3.org/2000/svg">
<path d="M19.8192 4.46641C19.8288 4.66081 19.8324 4.85761 19.8324 5.05201C19.8324 11.04 15.276 17.9424 6.9444 17.9424C4.3848 17.9424 2.0052 17.1924 0 15.906C1.18605 16.0494 2.38874 15.9577 3.53933 15.6361C4.68991 15.3145 5.76584 14.7693 6.7056 14.0316C5.7605 14.0137 4.84461 13.701 4.08597 13.1371C3.32734 12.5731 2.76389 11.7863 2.4744 10.8864C3.15367 11.0134 3.85277 10.9868 4.5204 10.8084C3.49513 10.6005 2.57328 10.0445 1.91106 9.23468C1.24883 8.42484 0.886973 7.41094 0.8868 6.36481V6.30841C1.51584 6.65833 2.21936 6.85293 2.9388 6.87601C1.97865 6.23591 1.29897 5.25351 1.0385 4.12933C0.778028 3.00515 0.956397 1.82395 1.5372 0.826806C2.67455 2.22656 4.09362 3.37141 5.70225 4.18699C7.31088 5.00257 9.07309 5.47064 10.8744 5.56081C10.7965 5.22195 10.7574 4.87531 10.758 4.52761C10.758 3.93293 10.8752 3.34408 11.1028 2.79469C11.3304 2.2453 11.664 1.74613 12.0845 1.32569C12.5051 0.905243 13.0043 0.571767 13.5538 0.344305C14.1032 0.116842 14.6921 -0.000151596 15.2868 6.01663e-06C15.9066 -0.00100469 16.5199 0.125334 17.0888 0.371185C17.6577 0.617036 18.17 0.977155 18.594 1.42921C19.6082 1.22844 20.5808 0.85675 21.4704 0.330006C21.1321 1.37905 20.4242 2.26947 19.4784 2.83561C20.3763 2.72916 21.2532 2.4889 22.08 2.12281C21.4726 3.03293 20.7069 3.8267 19.8192 4.46641Z" fill="white"/>
</svg>
