<svg width="48" height="48" viewBox="0 0 48 48" fill="none" xmlns="http://www.w3.org/2000/svg">
<circle cx="24" cy="24" r="24" fill="#2D2E32"/>
<path d="M21.4258 17.0898C21.6133 17.0898 21.7578 17.125 21.8594 17.1953C21.9609 17.2578 22.0352 17.375 22.082 17.5469C22.1367 17.7188 22.1641 17.9688 22.1641 18.2969C22.1641 18.625 22.1367 18.875 22.082 19.0469C22.0352 19.2188 21.9609 19.3359 21.8594 19.3984C21.7578 19.4609 21.6133 19.4922 21.4258 19.4922H18.6602V28.5977H21.6602C21.8477 28.5977 21.9922 28.6328 22.0938 28.7031C22.1953 28.7656 22.2695 28.8828 22.3164 29.0547C22.3711 29.2266 22.3984 29.4766 22.3984 29.8047C22.3984 30.1328 22.3711 30.3828 22.3164 30.5547C22.2695 30.7266 22.1953 30.8438 22.0938 30.9062C21.9922 30.9688 21.8477 31 21.6602 31H12.7305C12.543 31 12.3984 30.9688 12.2969 30.9062C12.1953 30.8438 12.1172 30.7266 12.0625 30.5547C12.0156 30.3828 11.9922 30.1328 11.9922 29.8047C11.9922 29.4766 12.0156 29.2266 12.0625 29.0547C12.1172 28.8828 12.1953 28.7656 12.2969 28.7031C12.3984 28.6328 12.543 28.5977 12.7305 28.5977H15.7305V19.4922H12.9648C12.7773 19.4922 12.6328 19.4609 12.5312 19.3984C12.4297 19.3359 12.3516 19.2188 12.2969 19.0469C12.25 18.875 12.2266 18.625 12.2266 18.2969C12.2266 17.9688 12.25 17.7188 12.2969 17.5469C12.3516 17.375 12.4297 17.2578 12.5312 17.1953C12.6328 17.125 12.7773 17.0898 12.9648 17.0898H21.4258ZM31.5859 16.832C32.8047 16.832 33.8789 17.1328 34.8086 17.7344C35.7461 18.3359 36.4688 19.1836 36.9766 20.2773C37.4922 21.3633 37.75 22.6211 37.75 24.0508C37.75 25.4805 37.4922 26.7422 36.9766 27.8359C36.4688 28.9219 35.7461 29.7656 34.8086 30.3672C33.8789 30.9609 32.8047 31.2578 31.5859 31.2578C30.3672 31.2578 29.2891 30.9609 28.3516 30.3672C27.4219 29.7656 26.6992 28.9219 26.1836 27.8359C25.6758 26.7422 25.4219 25.4805 25.4219 24.0508C25.4219 22.6211 25.6758 21.3633 26.1836 20.2773C26.6992 19.1836 27.4219 18.3359 28.3516 17.7344C29.2891 17.1328 30.3672 16.832 31.5859 16.832ZM31.5859 18.5664C30.7266 18.5664 29.9688 18.7891 29.3125 19.2344C28.6641 19.6797 28.1602 20.3164 27.8008 21.1445C27.4492 21.9727 27.2734 22.9414 27.2734 24.0508C27.2734 25.1602 27.4492 26.1289 27.8008 26.957C28.1602 27.7773 28.6641 28.4102 29.3125 28.8555C29.9688 29.3008 30.7266 29.5234 31.5859 29.5234C32.4453 29.5234 33.1992 29.3008 33.8477 28.8555C34.5039 28.4102 35.0078 27.7773 35.3594 26.957C35.7188 26.1289 35.8984 25.1602 35.8984 24.0508C35.8984 22.9414 35.7188 21.9727 35.3594 21.1445C35.0078 20.3164 34.5039 19.6797 33.8477 19.2344C33.1992 18.7891 32.4453 18.5664 31.5859 18.5664Z" fill="white"/>
</svg>
