<svg width="45" height="45" viewBox="0 0 45 45" fill="none" xmlns="http://www.w3.org/2000/svg">
<path d="M22.5 9.375C22.0027 9.375 21.5258 9.57254 21.1742 9.92418C20.8225 10.2758 20.625 10.7527 20.625 11.25C20.625 11.7473 20.8225 12.2242 21.1742 12.5758C21.5258 12.9275 22.0027 13.125 22.5 13.125H37.5C37.9973 13.125 38.4742 12.9275 38.8258 12.5758C39.1775 12.2242 39.375 11.7473 39.375 11.25C39.375 10.7527 39.1775 10.2758 38.8258 9.92418C38.4742 9.57254 37.9973 9.375 37.5 9.375H22.5Z" fill="#F7DF1E"/>
<path d="M13.125 22.5C13.125 22.0027 13.3225 21.5258 13.6742 21.1742C14.0258 20.8225 14.5027 20.625 15 20.625H30C30.4973 20.625 30.9742 20.8225 31.3258 21.1742C31.6775 21.5258 31.875 22.0027 31.875 22.5C31.875 22.9973 31.6775 23.4742 31.3258 23.8258C30.9742 24.1775 30.4973 24.375 30 24.375H15C14.5027 24.375 14.0258 24.1775 13.6742 23.8258C13.3225 23.4742 13.125 22.9973 13.125 22.5Z" fill="#F7DF1E"/>
<path d="M5.625 33.75C5.625 33.2527 5.82254 32.7758 6.17417 32.4242C6.52581 32.0725 7.00272 31.875 7.5 31.875H22.5C22.9973 31.875 23.4742 32.0725 23.8258 32.4242C24.1775 32.7758 24.375 33.2527 24.375 33.75C24.375 34.2473 24.1775 34.7242 23.8258 35.0758C23.4742 35.4275 22.9973 35.625 22.5 35.625H7.5C7.00272 35.625 6.52581 35.4275 6.17417 35.0758C5.82254 34.7242 5.625 34.2473 5.625 33.75Z" fill="#F7DF1E"/>
</svg>
