<svg width="101" height="33" viewBox="0 0 101 33" fill="none" xmlns="http://www.w3.org/2000/svg">
<path d="M6.688 26.784C5.55733 26.784 4.53333 26.464 3.616 25.824C2.72 25.2053 2.00533 24.2987 1.472 23.104C0.96 21.888 0.704 20.4693 0.704 18.848C0.704 16.1813 1.376 13.4507 2.72 10.656C4.064 7.86133 5.76 5.55733 7.808 3.744C9.87733 1.90933 11.8933 0.991999 13.856 0.991999C14.9867 0.991999 15.8187 1.33333 16.352 2.016C16.9067 2.69867 17.184 3.56267 17.184 4.608C17.184 5.35467 17.056 6.09067 16.8 6.816C16.544 7.54133 16.192 8.13867 15.744 8.608C15.3173 9.056 14.8587 9.28 14.368 9.28C13.9413 9.28 13.6107 9.03467 13.376 8.544C13.696 8.33067 14.048 7.936 14.432 7.36C14.8373 6.784 15.1787 6.15466 15.456 5.472C15.7333 4.78933 15.872 4.18133 15.872 3.648C15.872 3.136 15.712 2.73067 15.392 2.432C15.0933 2.112 14.6133 1.952 13.952 1.952C12.48 1.952 10.9013 2.912 9.216 4.832C7.53067 6.752 6.112 9.09867 4.96 11.872C3.82933 14.6453 3.264 17.184 3.264 19.488C3.264 21.3867 3.65867 22.8907 4.448 24C5.25867 25.1307 6.29333 25.696 7.552 25.696C8.61867 25.696 9.62133 25.1947 10.56 24.192C11.4987 23.1893 12.2667 21.9307 12.864 20.416C13.4827 18.9013 13.8453 17.4293 13.952 16C12.7147 15.7227 11.616 15.584 10.656 15.584L8.704 15.616C8.96 14.5067 9.68533 13.952 10.88 13.952C11.392 13.952 11.904 14.0267 12.416 14.176C12.9493 14.3253 13.6747 14.56 14.592 14.88C15.1253 15.1147 15.6907 15.3067 16.288 15.456L16.064 16.48C15.3173 18.4427 14.8053 20.0213 14.528 21.216C14.2507 22.3893 14.112 23.4133 14.112 24.288C14.112 24.6293 14.1333 25.12 14.176 25.76C14.2187 26.1867 14.24 26.528 14.24 26.784C13.088 26.336 12.512 25.568 12.512 24.48C12.512 24.0107 12.5867 23.52 12.736 23.008C10.9227 25.5253 8.90667 26.784 6.688 26.784ZM21.3028 10.176C20.9188 10.176 20.5988 10.0907 20.3428 9.92C20.1081 9.728 19.9908 9.46133 19.9908 9.12C19.9908 8.69333 20.2468 8.30933 20.7588 7.968C21.2708 7.62667 21.7934 7.456 22.3268 7.456C23.0308 7.456 23.3828 7.78667 23.3828 8.448C23.3828 8.85333 23.1588 9.248 22.7108 9.632C22.2841 9.99467 21.8148 10.176 21.3028 10.176ZM17.4628 24.832C16.6734 24.832 16.0654 24.576 15.6388 24.064C15.2121 23.5733 14.9988 22.9333 14.9988 22.144C14.9988 21.312 15.2334 20.16 15.7028 18.688C16.1934 17.216 16.7908 15.9253 17.4948 14.816C18.2201 13.7067 18.9241 13.152 19.6068 13.152C19.7988 13.152 19.9588 13.216 20.0868 13.344C20.2361 13.472 20.3108 13.6427 20.3108 13.856C20.3108 14.1547 19.9694 14.8693 19.2868 16C18.5828 17.1733 18.0174 18.2293 17.5908 19.168C17.1854 20.0853 16.9828 20.96 16.9828 21.792C16.9828 22.5387 17.1001 23.0507 17.3348 23.328C17.5908 23.584 17.9961 23.712 18.5508 23.712C20.2148 23.712 21.8574 22.08 23.4788 18.816L23.7668 19.136C23.1694 20.928 22.2841 22.3253 21.1108 23.328C19.9588 24.3307 18.7428 24.832 17.4628 24.832ZM20.7975 24.512C21.2028 23.6373 22.3122 21.2053 24.1255 17.216C25.9388 13.2267 27.8695 8.91733 29.9175 4.288C30.1308 3.79733 30.2375 3.36 30.2375 2.976C30.2375 2.69867 30.1628 2.496 30.0135 2.368C29.8642 2.21867 29.5762 2.144 29.1495 2.144C28.2962 2.144 27.5708 2.44267 26.9735 3.04C26.3762 3.616 25.9282 4.352 25.6295 5.248C25.3308 6.144 25.1815 7.05067 25.1815 7.968C25.1815 8.24533 25.2028 8.576 25.2455 8.96C24.6908 8.96 24.2642 8.68267 23.9655 8.128C23.6882 7.57333 23.5495 6.976 23.5495 6.336C23.5495 5.44 23.8695 4.576 24.5095 3.744C25.1495 2.912 25.9495 2.24 26.9095 1.728C27.8908 1.216 28.8508 0.959999 29.7895 0.959999C30.5362 0.959999 31.1335 1.16267 31.5815 1.568C32.0508 1.97333 32.4028 2.69867 32.6375 3.744C32.8935 4.78933 33.0215 6.25067 33.0215 8.128C33.0215 9.856 32.8935 12.448 32.6375 15.904C32.5095 17.5467 32.4135 19.1573 32.3495 20.736C33.0748 17.9413 34.4188 14.752 36.3815 11.168C38.3655 7.584 40.0615 4.75733 41.4695 2.688C41.8108 2.176 42.0775 1.83467 42.2695 1.664C42.4828 1.472 42.7495 1.376 43.0695 1.376C43.3682 1.376 43.7095 1.45067 44.0935 1.6C43.5602 2.88 43.0802 4.37333 42.6535 6.08C41.9282 8.896 41.2562 12.1387 40.6375 15.808C40.0402 19.456 39.7415 22.24 39.7415 24.16C39.7415 24.672 39.7628 25.056 39.8055 25.312C39.8482 25.568 39.9228 25.8453 40.0295 26.144L40.2215 26.784C39.4962 26.784 38.9415 26.6667 38.5575 26.432C38.1948 26.1973 37.9388 25.8347 37.7895 25.344C37.6615 24.8533 37.5975 24.1387 37.5975 23.2C37.5975 20.9173 37.8642 18.4853 38.3975 15.904C38.9308 13.3227 39.7308 10.0053 40.7975 5.952C39.8588 7.168 38.8135 8.91733 37.6615 11.2C36.5095 13.4613 35.4322 15.776 34.4295 18.144C33.4482 20.512 32.7122 22.432 32.2215 23.904C31.9868 23.9893 31.8268 24.032 31.7415 24.032C31.2082 24.032 30.8348 23.7227 30.6215 23.104C30.4295 22.464 30.3335 21.472 30.3335 20.128C30.3335 18.9333 30.4188 16.6293 30.5895 13.216C30.7602 9.84533 30.8455 7.616 30.8455 6.528C30.8455 5.93067 30.8242 5.33333 30.7815 4.736C29.2455 8.29867 27.9228 11.456 26.8135 14.208C25.3415 17.7493 24.2428 20.32 23.5175 21.92C22.7922 23.52 22.1308 24.7253 21.5335 25.536C20.9362 26.368 20.3495 26.784 19.7735 26.784L20.7975 24.512ZM46.0522 5.568C45.6469 5.33333 45.4442 5.03467 45.4442 4.672C45.4442 4.608 45.4656 4.512 45.5082 4.384C45.6576 4.064 45.8389 3.73333 46.0522 3.392C46.2869 3.05067 46.4363 2.82667 46.5002 2.72C46.5642 2.63467 46.7242 2.4 46.9802 2.016C47.2363 1.632 47.3963 1.28 47.4602 0.959999C47.6736 0.959999 47.8549 1.056 48.0043 1.248C48.1749 1.41867 48.2603 1.62133 48.2603 1.856C48.2603 2.13333 48.1322 2.47467 47.8762 2.88C47.6416 3.264 47.2789 3.808 46.7882 4.512C46.6816 4.68267 46.5642 4.85333 46.4362 5.024C46.3082 5.19467 46.1802 5.376 46.0522 5.568ZM45.6513 25.632C44.2646 25.632 43.2513 25.216 42.6113 24.384C41.9713 23.552 41.6513 22.5707 41.6513 21.44C41.6513 20.5867 41.8006 19.9893 42.0993 19.648C42.3979 19.2853 42.7179 19.0293 43.0593 18.88C43.4219 18.7307 43.6353 18.624 43.6993 18.56C45.0646 17.0667 46.1206 15.52 46.8673 13.92V13.536C46.8673 12.8107 46.9846 12.2667 47.2193 11.904C47.4753 11.5413 47.7739 11.36 48.1153 11.36C48.2859 11.36 48.4139 11.4027 48.4993 11.488C48.5846 11.552 48.6273 11.648 48.6273 11.776C48.6273 11.8613 48.5953 12.0427 48.5313 12.32C48.4673 12.576 48.4353 12.864 48.4353 13.184C48.4353 13.6107 48.4886 14.0693 48.5953 14.56C48.7233 15.0293 48.9153 15.648 49.1713 16.416C49.4699 17.3333 49.6939 18.1333 49.8433 18.816C50.0139 19.4987 50.0993 20.192 50.0993 20.896C50.0993 21.4507 50.0353 21.9733 49.9073 22.464C50.6753 22.336 51.3899 21.9947 52.0513 21.44C52.7126 20.864 53.3419 20 53.9393 18.848L54.2273 19.168C53.8433 20.2773 53.2566 21.152 52.4673 21.792C51.6779 22.432 50.7713 22.8267 49.7473 22.976C49.4273 23.8507 48.9046 24.512 48.1793 24.96C47.4539 25.408 46.6113 25.632 45.6513 25.632ZM47.8913 22.432C47.9766 21.8773 48.0193 21.376 48.0193 20.928C48.0193 20.288 47.9659 19.648 47.8593 19.008C47.7526 18.368 47.5926 17.632 47.3793 16.8C47.1873 15.9467 47.0699 15.392 47.0273 15.136C45.9393 16.928 44.9046 18.3147 43.9233 19.296C44.2646 20.0427 44.7766 20.704 45.4593 21.28C46.1633 21.856 46.9739 22.24 47.8913 22.432ZM45.7153 24.512C46.6966 24.512 47.3686 23.9893 47.7313 22.944C46.8779 22.7733 46.0993 22.4427 45.3953 21.952C44.6913 21.44 44.1579 20.8853 43.7953 20.288C43.3259 20.3093 43.0913 20.6827 43.0913 21.408C43.0913 22.2187 43.3259 22.944 43.7953 23.584C44.2859 24.2027 44.9259 24.512 45.7153 24.512ZM60.675 26.784C59.4803 26.784 58.5843 26.5813 57.987 26.176C57.411 25.7707 57.123 25.12 57.123 24.224C57.123 24.16 57.1763 24.128 57.283 24.128C57.3683 24.128 57.6243 24.1813 58.051 24.288C58.4777 24.3947 59.2243 24.448 60.291 24.448C62.659 24.448 64.8137 24.096 66.755 23.392C68.7177 22.6667 70.2537 21.7173 71.363 20.544C72.4723 19.3707 73.027 18.144 73.027 16.864C73.027 15.3067 72.259 14.2507 70.723 13.696C69.187 13.12 67.267 12.832 64.963 12.832L62.563 12.864C62.243 13.952 61.7843 15.584 61.187 17.76C60.739 19.424 60.2377 21.2267 59.683 23.168C59.1497 23.168 58.7017 23.0187 58.339 22.72C57.9763 22.4213 57.795 22.0587 57.795 21.632C57.795 21.3547 57.859 21.0133 57.987 20.608C58.115 20.2027 58.2003 19.936 58.243 19.808C58.9043 17.5893 59.8963 14.6347 61.219 10.944C62.563 7.232 63.8323 4.20267 65.027 1.856C63.7683 2.06933 62.531 2.53867 61.315 3.264C60.931 3.47733 60.6963 3.584 60.611 3.584C60.4403 3.584 60.227 3.47733 59.971 3.264C59.715 3.05067 59.587 2.86933 59.587 2.72C60.995 2.144 62.2323 1.70667 63.299 1.408C64.387 1.10933 65.6777 0.959999 67.171 0.959999C69.1337 0.959999 70.851 1.32267 72.323 2.048C73.8163 2.752 74.563 4.08533 74.563 6.048C74.563 7.94667 73.8483 9.376 72.419 10.336C71.011 11.296 69.283 11.9467 67.235 12.288C72.099 12.5867 74.531 14.304 74.531 17.44C74.531 19.36 73.7523 21.0347 72.195 22.464C70.6377 23.872 68.7603 24.9387 66.563 25.664C64.387 26.4107 62.4243 26.784 60.675 26.784ZM62.755 12.128C65.507 12.0427 67.843 11.4987 69.763 10.496C71.683 9.49333 72.643 7.92533 72.643 5.792C72.643 3.01867 70.8403 1.632 67.235 1.632C66.9577 1.632 66.755 1.64267 66.627 1.664C65.3683 4.11733 64.0777 7.60533 62.755 12.128ZM76.0798 24.96C75.2051 24.96 74.5544 24.6613 74.1278 24.064C73.7224 23.4667 73.5198 22.6667 73.5198 21.664C73.5198 19.744 74.1811 17.1413 75.5038 13.856C76.8264 10.5493 78.2984 7.57333 79.9198 4.928C81.5624 2.28267 82.7464 0.959999 83.4718 0.959999C83.7704 0.959999 84.0158 1.22667 84.2078 1.76C84.4211 2.272 84.5278 2.79467 84.5278 3.328C84.5278 4.30933 84.1224 5.76 83.3118 7.68C82.5224 9.57867 81.4771 11.5093 80.1758 13.472C78.8744 15.4347 77.4878 17.024 76.0158 18.24C75.7384 19.4773 75.5998 20.5547 75.5998 21.472C75.5998 23.1147 76.0691 23.936 77.0078 23.936C77.7971 23.936 78.5971 23.4347 79.4078 22.432C80.2398 21.4293 80.9758 20.224 81.6158 18.816L82.0958 19.072C80.2611 22.9973 78.2558 24.96 76.0798 24.96ZM76.3038 17.152C77.4771 15.9787 78.6184 14.5067 79.7278 12.736C80.8584 10.944 81.7758 9.23733 82.4798 7.616C83.1838 5.97333 83.5358 4.78933 83.5358 4.064C83.5358 3.72267 83.4611 3.552 83.3118 3.552C83.0131 3.552 82.3944 4.288 81.4558 5.76C80.5384 7.21067 79.5891 8.992 78.6078 11.104C77.6264 13.216 76.8584 15.232 76.3038 17.152ZM80.6343 25.024C79.7596 25.024 79.1196 24.7573 78.7143 24.224C78.3089 23.6907 78.1063 22.9867 78.1063 22.112C78.1063 21.2373 78.2876 20.32 78.6503 19.36C79.0129 18.4 79.4823 17.6 80.0583 16.96C80.6343 16.32 81.2103 16 81.7863 16C81.9783 16 82.2023 16.0533 82.4583 16.16C82.2023 16.3733 81.8929 16.8427 81.5303 17.568C81.1676 18.2933 80.8476 19.072 80.5703 19.904C80.3143 20.7147 80.1863 21.376 80.1863 21.888C80.1863 23.104 80.5703 23.712 81.3383 23.712C81.7863 23.712 82.3196 23.4773 82.9383 23.008C83.5569 22.5387 84.1649 21.92 84.7623 21.152C84.1649 20.6613 83.6956 20.0213 83.3543 19.232C83.0343 18.4427 82.8743 17.6213 82.8743 16.768C82.8743 15.6587 83.1516 14.7093 83.7063 13.92C84.2823 13.1307 85.0503 12.736 86.0103 12.736C86.8209 12.736 87.3863 12.96 87.7063 13.408C88.0476 13.8347 88.2183 14.432 88.2183 15.2C88.2183 16.0107 88.0156 16.928 87.6103 17.952C87.2263 18.9547 86.7143 19.936 86.0743 20.896C86.4583 21.1093 86.8636 21.216 87.2903 21.216C87.9089 21.216 88.5489 21.0347 89.2103 20.672C89.8716 20.288 90.3729 19.7013 90.7143 18.912L91.0983 19.232C90.6929 20.1707 90.1169 20.864 89.3703 21.312C88.6236 21.76 87.8556 21.984 87.0663 21.984C86.4903 21.984 85.9783 21.8773 85.5303 21.664C84.7623 22.6667 83.9409 23.4773 83.0663 24.096C82.2129 24.7147 81.4023 25.024 80.6343 25.024ZM85.3383 20.32C85.8929 19.488 86.3409 18.6453 86.6823 17.792C87.0236 16.9173 87.1943 16.1173 87.1943 15.392C87.1943 14.7947 87.0983 14.3467 86.9063 14.048C86.7356 13.7493 86.5116 13.6 86.2343 13.6C85.9356 13.6 85.6263 13.7493 85.3063 14.048C85.0076 14.3253 84.7516 14.72 84.5383 15.232C84.3463 15.7227 84.2503 16.2667 84.2503 16.864C84.2503 17.5253 84.3356 18.1653 84.5063 18.784C84.6983 19.3813 84.9756 19.8933 85.3383 20.32ZM88.7697 32.96C88.2577 32.96 87.8204 32.8 87.4577 32.48C87.0951 32.1813 86.9137 31.7227 86.9137 31.104C86.9137 30.3147 87.2231 29.5787 87.8417 28.896C88.4604 28.2347 89.1644 27.6587 89.9537 27.168C90.7644 26.6987 91.8311 26.1333 93.1537 25.472C93.7511 23.936 94.2951 22.176 94.7857 20.192C92.8871 22.9227 91.1484 24.288 89.5697 24.288C88.8231 24.288 88.2364 24.0107 87.8097 23.456C87.3831 22.88 87.1697 22.1227 87.1697 21.184C87.1697 19.776 87.6177 18.432 88.5137 17.152C89.4311 15.872 90.5511 14.848 91.8737 14.08C93.2177 13.2907 94.4764 12.896 95.6497 12.896C96.2257 12.896 96.6524 12.992 96.9297 13.184C97.2284 13.376 97.3777 13.6213 97.3777 13.92C97.3777 14.0907 97.3244 14.24 97.2177 14.368C97.1324 14.4747 97.0577 14.5387 96.9937 14.56C96.7804 14.24 96.3537 14.08 95.7137 14.08C94.6471 14.08 93.6124 14.4853 92.6097 15.296C91.6284 16.1067 90.8284 17.088 90.2097 18.24C89.5911 19.392 89.2817 20.4267 89.2817 21.344C89.2817 21.856 89.3777 22.2507 89.5697 22.528C89.7831 22.784 90.0604 22.912 90.4017 22.912C90.9777 22.912 91.6924 22.5173 92.5457 21.728C93.4204 20.9387 94.2844 19.9253 95.1377 18.688L95.5217 16.992C95.6071 16.5867 95.7777 16.2133 96.0337 15.872C96.3111 15.5307 96.6844 15.36 97.1537 15.36C97.3457 15.36 97.5697 15.392 97.8257 15.456C97.8257 16.032 97.5911 17.1947 97.1217 18.944C96.6524 20.672 96.0657 22.432 95.3617 24.224C96.4711 23.6907 97.4951 22.9547 98.4337 22.016C99.3937 21.056 100.108 19.9893 100.578 18.816L100.994 19.136C100.546 20.4373 99.7351 21.6213 98.5617 22.688C97.4097 23.7547 96.2257 24.576 95.0097 25.152C94.0071 27.584 92.9937 29.4933 91.9697 30.88C90.9457 32.2667 89.8791 32.96 88.7697 32.96ZM88.6737 31.936C89.1644 31.936 89.7724 31.4667 90.4977 30.528C91.2444 29.6107 92.0124 28.2133 92.8017 26.336C91.2444 27.1253 90.0391 27.8613 89.1857 28.544C88.3324 29.2267 87.9057 29.984 87.9057 30.816C87.9057 31.1573 87.9697 31.424 88.0977 31.616C88.2471 31.8293 88.4391 31.936 88.6737 31.936Z" fill="#7B7B83"/>
</svg>
