<svg width="45" height="45" viewBox="0 0 45 45" fill="none" xmlns="http://www.w3.org/2000/svg">
<path d="M34.3125 10.7064C34.139 10.5326 33.933 10.3947 33.7062 10.3006C33.4793 10.2065 33.2362 10.1581 32.9906 10.1581C32.745 10.1581 32.5019 10.2065 32.2751 10.3006C32.0482 10.3947 31.8422 10.5326 31.6687 10.7064L22.5 19.8564L13.3312 10.6877C13.1577 10.5141 12.9516 10.3764 12.7248 10.2824C12.498 10.1885 12.2549 10.1401 12.0094 10.1401C11.7639 10.1401 11.5208 10.1885 11.294 10.2824C11.0672 10.3764 10.8611 10.5141 10.6875 10.6877C10.5139 10.8613 10.3762 11.0673 10.2823 11.2942C10.1883 11.521 10.14 11.7641 10.14 12.0096C10.14 12.255 10.1883 12.4981 10.2823 12.7249C10.3762 12.9518 10.5139 13.1578 10.6875 13.3314L19.8562 22.5002L10.6875 31.6689C10.5139 31.8425 10.3762 32.0486 10.2823 32.2754C10.1883 32.5022 10.14 32.7453 10.14 32.9908C10.14 33.2363 10.1883 33.4794 10.2823 33.7062C10.3762 33.933 10.5139 34.1391 10.6875 34.3127C10.8611 34.4863 11.0672 34.624 11.294 34.7179C11.5208 34.8119 11.7639 34.8602 12.0094 34.8602C12.2549 34.8602 12.498 34.8119 12.7248 34.7179C12.9516 34.624 13.1577 34.4863 13.3312 34.3127L22.5 25.1439L31.6687 34.3127C31.8423 34.4863 32.0484 34.624 32.2752 34.7179C32.502 34.8119 32.7451 34.8602 32.9906 34.8602C33.2361 34.8602 33.4792 34.8119 33.706 34.7179C33.9328 34.624 34.1389 34.4863 34.3125 34.3127C34.4861 34.1391 34.6238 33.933 34.7177 33.7062C34.8117 33.4794 34.86 33.2363 34.86 32.9908C34.86 32.7453 34.8117 32.5022 34.7177 32.2754C34.6238 32.0486 34.4861 31.8425 34.3125 31.6689L25.1437 22.5002L34.3125 13.3314C35.025 12.6189 35.025 11.4189 34.3125 10.7064V10.7064Z" fill="#F7DF1E"/>
</svg>
