<svg width="45" height="45" viewBox="0 0 45 45" fill="none" xmlns="http://www.w3.org/2000/svg">
<path d="M37.5 7.5H7.5C5.4375 7.5 3.75 9.1875 3.75 11.25V33.75C3.75 35.8125 5.4375 37.5 7.5 37.5H37.5C39.5625 37.5 41.25 35.8125 41.25 33.75V11.25C41.25 9.1875 39.5625 7.5 37.5 7.5ZM36.75 15.4688L24.4875 23.1375C23.2688 23.9062 21.7312 23.9062 20.5125 23.1375L8.25 15.4688C8.06199 15.3632 7.89735 15.2206 7.76604 15.0496C7.63473 14.8786 7.53949 14.6827 7.48608 14.4738C7.43267 14.2649 7.42219 14.0474 7.45529 13.8343C7.48839 13.6213 7.56438 13.4172 7.67865 13.2343C7.79293 13.0515 7.94311 12.8937 8.12011 12.7706C8.29712 12.6475 8.49726 12.5616 8.70843 12.5181C8.9196 12.4745 9.13741 12.4743 9.34867 12.5174C9.55992 12.5605 9.76024 12.646 9.9375 12.7687L22.5 20.625L35.0625 12.7687C35.2398 12.646 35.4401 12.5605 35.6513 12.5174C35.8626 12.4743 36.0804 12.4745 36.2916 12.5181C36.5027 12.5616 36.7029 12.6475 36.8799 12.7706C37.0569 12.8937 37.2071 13.0515 37.3213 13.2343C37.4356 13.4172 37.5116 13.6213 37.5447 13.8343C37.5778 14.0474 37.5673 14.2649 37.5139 14.4738C37.4605 14.6827 37.3653 14.8786 37.234 15.0496C37.1027 15.2206 36.938 15.3632 36.75 15.4688Z" fill="#F7DF1E"/>
</svg>
