<svg width="71" height="72" viewBox="0 0 71 72" fill="none" xmlns="http://www.w3.org/2000/svg">
<g clip-path="url(#clip0)">
<path d="M0.0682373 0.272949H70.9773V71.182H0.0682373V0.272949Z" fill="#F7DF1E"/>
<path d="M18.7129 59.5298L24.1393 56.2458C25.1862 58.102 26.1385 59.6724 28.4228 59.6724C30.6124 59.6724 31.9929 58.8159 31.9929 55.4843V32.8271H38.6566V55.5785C38.6566 62.4803 34.6109 65.6218 28.7085 65.6218C23.3778 65.6218 20.2835 62.861 18.7128 59.5293" fill="black"/>
<path d="M42.276 58.8159L47.7018 55.6744C49.1301 58.007 50.9865 59.7204 54.2706 59.7204C57.0316 59.7204 58.7923 58.3399 58.7923 56.436C58.7923 54.1512 56.9837 53.342 53.9373 52.0097L52.2718 51.2952C47.4641 49.2488 44.2748 46.6785 44.2748 41.2522C44.2748 36.2543 48.0827 32.4463 54.0327 32.4463C58.269 32.4463 61.3153 33.922 63.5046 37.7775L58.3163 41.1092C57.1739 39.0627 55.9367 38.2536 54.0328 38.2536C52.0813 38.2536 50.8436 39.4912 50.8436 41.1092C50.8436 43.1084 52.0813 43.9178 54.9369 45.1554L56.6027 45.8694C62.267 48.2971 65.4562 50.7719 65.4562 56.3407C65.4562 62.3385 60.744 65.6225 54.4135 65.6225C48.2257 65.6225 44.2274 62.6716 42.2761 58.8159" fill="black"/>
</g>
<defs>
<clipPath id="clip0">
<rect width="70.9091" height="70.9091" fill="white" transform="translate(0.0682373 0.272949)"/>
</clipPath>
</defs>
</svg>
