<svg width="107" height="19" viewBox="0 0 107 19" fill="none" xmlns="http://www.w3.org/2000/svg">
<path d="M12.308 17.0001C13.98 17.0001 14.728 16.1421 14.728 14.2281C14.728 12.7541 14.464 11.2801 12.286 11.2801H7.27V4.0421C7.27 2.3481 6.346 1.6001 4.234 1.6001C2.034 1.6001 1 2.3701 1 4.0421V11.9621C1 15.9001 2.034 17.0001 5.642 17.0001H12.308ZM4.234 1.8641C6.654 1.8641 6.984 2.9201 6.984 4.0421V11.2801H6.06C4.124 11.2801 3.684 13.0621 4.432 13.9201C4.938 14.4921 6.06 14.5581 6.72 13.8981C7.358 13.2821 7.27 12.4461 7.27 11.5661H12.286C14.068 11.5661 14.442 12.6221 14.442 14.2281C14.442 15.9881 13.804 16.7361 12.308 16.7361H5.642C2.21 16.7361 1.264 15.7241 1.264 11.9621V4.0421C1.264 2.9641 1.638 1.8641 4.234 1.8641ZM6.984 11.5661C6.984 12.3801 7.072 13.1501 6.522 13.7001C5.972 14.2501 5.07 14.1841 4.652 13.7221C4.036 13.0401 4.366 11.5661 6.06 11.5661H6.984ZM29.626 17.0001C31.804 17.0001 31.98 15.6141 31.98 14.0521C31.98 12.6441 31.672 11.3461 29.626 11.3461H28.086C28.152 10.4881 28.152 8.0681 28.086 7.2541H29.626C32.002 7.2541 31.98 5.5601 31.98 4.5481C31.98 3.0521 31.782 1.6001 29.626 1.6001H21.068C19.33 1.6001 18.252 2.1281 18.252 4.7461V13.8541C18.252 16.4721 19.33 17.0001 21.068 17.0001H29.626ZM29.626 1.8641C31.54 1.8641 31.694 3.0521 31.694 4.5481C31.694 5.8461 31.54 6.9681 29.626 6.9681H28.042C27.8 5.0981 27.074 4.4161 25.138 4.4161C23.18 4.4161 23.026 7.2541 25.622 7.2541H27.8C27.866 8.0681 27.866 10.4881 27.8 11.3461H25.622C23.026 11.3461 23.18 14.1841 25.138 14.1841C27.074 14.1841 27.8 13.5021 28.042 11.6321H29.626C31.342 11.6321 31.694 12.5561 31.694 14.0521C31.694 15.5481 31.54 16.7361 29.626 16.7361H21.068C19.418 16.7361 18.516 16.2741 18.516 13.8541V4.7461C18.516 2.3481 19.418 1.8641 21.068 1.8641H29.626ZM27.778 11.6321C27.536 13.3041 26.898 13.8981 25.138 13.8981C23.532 13.8981 23.378 11.6321 25.622 11.6321H27.778ZM25.138 4.7021C26.898 4.7021 27.536 5.2741 27.778 6.9681H25.622C23.378 6.9681 23.532 4.7021 25.138 4.7021ZM35.9829 16.8021C38.4249 17.4401 40.9769 16.5821 42.4289 14.8441C43.7709 16.4281 46.0589 17.2641 48.4129 16.8901C49.0949 16.7801 49.5789 16.4061 49.8209 15.7461C50.8989 12.7981 46.7409 5.2301 44.6069 2.6561C44.0129 1.9521 43.2869 1.6001 42.4289 1.6001C41.5709 1.6001 40.7349 1.9961 40.2069 2.6781C38.2269 5.0981 33.9589 12.9521 34.9269 15.7681C35.1029 16.3181 35.4549 16.6701 35.9829 16.8021ZM42.4289 1.8641C43.1989 1.8641 43.8589 2.1941 44.3869 2.8321C46.4109 5.2961 50.6129 12.8421 49.5569 15.6581C49.3589 16.1861 48.9629 16.5161 48.3689 16.6261C46.0809 16.9781 43.9029 16.1861 42.6049 14.6241C43.2429 13.7661 43.5949 12.7321 43.6609 11.6541C43.7709 9.8281 41.0429 9.7181 41.1529 11.5441C41.2189 12.6881 41.5709 13.7441 42.2529 14.6241C40.8449 16.3181 38.4249 17.1321 36.0489 16.5381C35.6309 16.4281 35.3449 16.1641 35.1909 15.7021C34.3109 13.0841 38.4029 5.2961 40.4049 2.8541C40.9109 2.2381 41.6589 1.8641 42.4289 1.8641ZM41.4169 11.5441C41.3509 10.0701 43.4629 10.1801 43.3969 11.6321C43.3309 12.6661 43.0009 13.5901 42.4289 14.4041C41.8349 13.5901 41.4829 12.6221 41.4169 11.5441ZM56.0031 17.0001C57.8511 17.0001 58.8851 16.5821 58.9951 14.2941C61.2831 16.1421 63.6591 17.0001 66.4091 17.0001C68.2791 17.0001 68.8731 15.7021 68.2351 14.0081C67.9931 13.4141 67.1791 12.3801 66.3651 11.4121C67.4211 10.8181 68.0591 9.9601 68.3011 8.8381C68.5871 7.4521 68.5871 6.2861 68.3011 4.9001C67.8171 2.7001 66.2551 1.6001 63.6371 1.6001H58.2911C54.8811 1.6001 53.1651 3.2721 53.1211 6.6381V13.8981C53.1211 16.1861 53.8251 17.0001 56.0031 17.0001ZM63.6371 1.8641C66.1231 1.8641 67.5751 2.8981 68.0371 4.9441C68.3231 6.2861 68.3231 7.4521 68.0371 8.7941C67.7951 9.8721 67.1791 10.6641 66.1891 11.1921C65.4851 10.4221 64.3851 9.5641 63.4171 9.4981C61.6131 9.3221 61.3271 11.8301 62.9991 12.1161C63.8131 12.2701 65.0891 12.0501 66.1231 11.5441C66.6511 12.1161 67.7291 13.5021 67.9711 14.0961C68.5651 15.6141 68.1031 16.7141 66.4091 16.7141C63.6591 16.7141 61.3051 15.8561 58.9951 13.9421C58.9731 12.1821 59.1051 10.7961 58.6651 9.9381C57.8071 8.2441 55.4091 9.4761 56.1571 11.2141C56.4871 11.9841 56.8831 12.3801 57.6751 13.1501C58.0271 13.4801 58.3791 13.7881 58.7091 14.0741C58.7091 16.3181 57.7631 16.7361 56.0031 16.7361C54.0011 16.7361 53.3851 16.0541 53.3851 13.8981V6.6381C53.4291 3.4481 55.0571 1.8641 58.2911 1.8641H63.6371ZM56.3991 11.1041C55.8051 9.6741 57.7191 8.6841 58.4231 10.0701C58.7971 10.8401 58.7091 12.1381 58.7091 13.7221L57.8731 12.9521C57.0371 12.1821 56.6851 11.7421 56.3991 11.1041ZM63.0431 11.8521C61.7231 11.6321 61.8991 9.6521 63.3951 9.7621C64.2971 9.8501 65.2651 10.5981 65.9471 11.3241C64.9131 11.7861 63.7471 12.0061 63.0431 11.8521ZM84.2513 17.0001C86.4953 17.0001 86.8473 15.9441 86.8473 13.4361V4.0201C86.8473 2.4581 85.7913 1.6001 83.8773 1.6001C81.8973 1.6001 80.9073 2.3701 80.9073 3.9321V6.4841C79.1473 4.5481 76.2213 1.6001 74.0873 1.6001C71.5573 1.6001 71.4473 3.1621 71.4473 5.9341V14.6681C71.4473 16.2301 72.4593 17.0001 74.5053 17.0001C76.4193 17.0001 77.3873 16.2301 77.3873 14.6681V12.1821C79.3233 14.4701 82.0293 17.0001 84.2513 17.0001ZM77.3873 8.3761C77.3873 5.0761 73.1413 6.4841 75.0993 9.2561C75.4513 9.7621 76.1773 10.7301 77.1233 11.8521V14.6681C77.1233 16.0541 76.2433 16.7361 74.5053 16.7361C72.6353 16.7361 71.7113 16.0541 71.7113 14.6681V5.9341C71.7113 2.9861 71.9093 1.8641 74.0873 1.8641C76.2213 1.8641 79.2573 5.0101 80.9073 6.9021V10.2241C80.9073 12.2481 82.5573 12.0721 82.3373 12.0721C83.3713 12.0721 84.2733 10.9501 83.1953 9.3441C82.8433 8.8381 82.1173 7.8921 81.1713 6.8141V3.9321C81.1713 2.5241 82.0293 1.8641 83.8773 1.8641C84.8673 1.8641 86.5833 2.1721 86.5833 4.0201V13.4361C86.5833 15.9441 86.2533 16.7361 84.2513 16.7361C82.0513 16.7361 79.3233 14.0521 77.3873 11.7641V8.3761ZM81.1713 7.2321C82.0293 8.2001 82.6233 9.0581 82.9533 9.4981C84.5593 11.8961 81.1713 12.8421 81.1713 10.2241V7.2321ZM75.3413 9.1021C73.6693 6.7261 77.1233 5.5601 77.1233 8.3761V11.4341C76.2653 10.4001 75.6713 9.5421 75.3413 9.1021ZM92.6554 17.0001C94.5034 17.0001 95.5374 16.5821 95.6474 14.2941C97.9354 16.1421 100.311 17.0001 103.061 17.0001C104.931 17.0001 105.525 15.7021 104.887 14.0081C104.645 13.4141 103.831 12.3801 103.017 11.4121C104.073 10.8181 104.711 9.9601 104.953 8.8381C105.239 7.4521 105.239 6.2861 104.953 4.9001C104.469 2.7001 102.907 1.6001 100.289 1.6001H94.9434C91.5334 1.6001 89.8174 3.2721 89.7734 6.6381V13.8981C89.7734 16.1861 90.4774 17.0001 92.6554 17.0001ZM100.289 1.8641C102.775 1.8641 104.227 2.8981 104.689 4.9441C104.975 6.2861 104.975 7.4521 104.689 8.7941C104.447 9.8721 103.831 10.6641 102.841 11.1921C102.137 10.4221 101.037 9.5641 100.069 9.4981C98.2654 9.3221 97.9794 11.8301 99.6514 12.1161C100.465 12.2701 101.741 12.0501 102.775 11.5441C103.303 12.1161 104.381 13.5021 104.623 14.0961C105.217 15.6141 104.755 16.7141 103.061 16.7141C100.311 16.7141 97.9574 15.8561 95.6474 13.9421C95.6254 12.1821 95.7574 10.7961 95.3174 9.9381C94.4594 8.2441 92.0614 9.4761 92.8094 11.2141C93.1394 11.9841 93.5354 12.3801 94.3274 13.1501C94.6794 13.4801 95.0314 13.7881 95.3614 14.0741C95.3614 16.3181 94.4154 16.7361 92.6554 16.7361C90.6534 16.7361 90.0374 16.0541 90.0374 13.8981V6.6381C90.0814 3.4481 91.7094 1.8641 94.9434 1.8641H100.289ZM93.0514 11.1041C92.4574 9.6741 94.3714 8.6841 95.0754 10.0701C95.4494 10.8401 95.3614 12.1381 95.3614 13.7221L94.5254 12.9521C93.6894 12.1821 93.3374 11.7421 93.0514 11.1041ZM99.6954 11.8521C98.3754 11.6321 98.5514 9.6521 100.047 9.7621C100.949 9.8501 101.917 10.5981 102.599 11.3241C101.565 11.7861 100.399 12.0061 99.6954 11.8521Z" fill="#7B7B83"/>
<path d="M7.27 11.2801H6.27V12.2801H7.27V11.2801ZM6.984 11.2801V12.2801H7.984V11.2801H6.984ZM4.432 13.9201L3.67821 14.5773L3.683 14.5827L4.432 13.9201ZM6.72 13.8981L6.02541 13.1787L6.0191 13.1848L6.01289 13.191L6.72 13.8981ZM7.27 11.5661V10.5661H6.27V11.5661H7.27ZM6.984 11.5661H7.984V10.5661H6.984V11.5661ZM4.652 13.7221L3.9099 14.3924L3.91046 14.393L4.652 13.7221ZM12.308 18.0001C13.3059 18.0001 14.2425 17.7409 14.8984 16.9894C15.5275 16.2685 15.728 15.2833 15.728 14.2281H13.728C13.728 15.0869 13.5545 15.4877 13.3916 15.6743C13.2555 15.8303 12.9821 16.0001 12.308 16.0001V18.0001ZM15.728 14.2281C15.728 13.4811 15.6732 12.4908 15.1767 11.6794C14.6132 10.7585 13.6306 10.2801 12.286 10.2801V12.2801C13.1194 12.2801 13.3578 12.5387 13.4708 12.7233C13.6508 13.0174 13.728 13.5011 13.728 14.2281H15.728ZM12.286 10.2801H7.27V12.2801H12.286V10.2801ZM8.27 11.2801V4.0421H6.27V11.2801H8.27ZM8.27 4.0421C8.27 3.01408 7.98268 2.06068 7.17133 1.4071C6.41033 0.794064 5.37069 0.600098 4.234 0.600098V2.6001C5.20931 2.6001 5.68767 2.78013 5.91667 2.9646C6.09532 3.10851 6.27 3.37612 6.27 4.0421H8.27ZM4.234 0.600098C3.05191 0.600098 1.98089 0.800394 1.19068 1.39509C0.340085 2.03523 0 2.985 0 4.0421H2C2 3.42719 2.17691 3.15597 2.39332 2.99311C2.67011 2.7848 3.21609 2.6001 4.234 2.6001V0.600098ZM0 4.0421V11.9621H2V4.0421H0ZM0 11.9621C0 13.9397 0.239686 15.5618 1.2338 16.6368C2.25243 17.7383 3.80677 18.0001 5.642 18.0001V16.0001C3.86923 16.0001 3.10257 15.7119 2.7022 15.2789C2.27731 14.8194 2 13.9225 2 11.9621H0ZM5.642 18.0001H12.308V16.0001H5.642V18.0001ZM4.234 2.8641C5.33338 2.8641 5.68488 3.10915 5.79236 3.222C5.90027 3.33531 5.984 3.54218 5.984 4.0421H7.984C7.984 3.42002 7.90273 2.53789 7.24064 1.84269C6.57812 1.14705 5.55462 0.864098 4.234 0.864098V2.8641ZM5.984 4.0421V11.2801H7.984V4.0421H5.984ZM6.984 10.2801H6.06V12.2801H6.984V10.2801ZM6.06 10.2801C4.7486 10.2801 3.77481 10.9114 3.33366 11.8547C2.9234 12.732 3.02023 13.8225 3.67823 14.5772L5.18577 13.263C5.09577 13.1597 5.0386 12.9302 5.14534 12.702C5.22119 12.5398 5.4354 12.2801 6.06 12.2801V10.2801ZM3.683 14.5827C4.16114 15.1232 4.86067 15.3627 5.50535 15.371C6.16331 15.3795 6.88114 15.1512 7.42711 14.6052L6.01289 13.191C5.89886 13.305 5.72569 13.3737 5.53115 13.3712C5.32333 13.3685 5.20886 13.289 5.181 13.2575L3.683 14.5827ZM7.4146 14.6175C7.93653 14.1136 8.14412 13.5217 8.22378 12.9754C8.2954 12.4843 8.27 11.9304 8.27 11.5661H6.27C6.27 12.0818 6.2886 12.3859 6.24472 12.6868C6.20888 12.9325 6.14147 13.0666 6.02541 13.1787L7.4146 14.6175ZM7.27 12.5661H12.286V10.5661H7.27V12.5661ZM12.286 12.5661C12.9702 12.5661 13.1359 12.7551 13.2055 12.8574C13.3394 13.0542 13.442 13.45 13.442 14.2281H15.442C15.442 13.4002 15.3576 12.465 14.859 11.7323C14.2961 10.9051 13.3838 10.5661 12.286 10.5661V12.5661ZM13.442 14.2281C13.442 15.0254 13.29 15.3583 13.1746 15.4939C13.0923 15.5905 12.9009 15.7361 12.308 15.7361V17.7361C13.2111 17.7361 14.0867 17.5077 14.6974 16.7903C15.275 16.1119 15.442 15.1908 15.442 14.2281H13.442ZM12.308 15.7361H5.642V17.7361H12.308V15.7361ZM5.642 15.7361C3.94936 15.7361 3.25545 15.467 2.90188 15.0827C2.52176 14.6696 2.264 13.8427 2.264 11.9621H0.264C0.264 13.8435 0.479236 15.4036 1.43012 16.437C2.40756 17.4992 3.90264 17.7361 5.642 17.7361V15.7361ZM2.264 11.9621V4.0421H0.264V11.9621H2.264ZM2.264 4.0421C2.264 3.59388 2.3472 3.38876 2.47552 3.26297C2.61928 3.12205 3.04274 2.8641 4.234 2.8641V0.864098C2.82926 0.864098 1.76772 1.15615 1.07548 1.83473C0.367798 2.52844 0.264 3.41232 0.264 4.0421H2.264ZM5.984 11.5661C5.984 12.0539 6.00327 12.3261 5.96744 12.6044C5.93842 12.8297 5.88392 12.924 5.81489 12.993L7.22911 14.4072C7.71008 13.9262 7.88658 13.3605 7.95106 12.8598C8.00873 12.4121 7.984 11.8923 7.984 11.5661H5.984ZM5.81489 12.993C5.75323 13.0547 5.66182 13.0924 5.55337 13.0907C5.43096 13.0888 5.3839 13.0405 5.39354 13.0512L3.91046 14.393C4.72393 15.2921 6.28723 15.3491 7.22911 14.4072L5.81489 12.993ZM5.3941 13.0518C5.37899 13.0351 5.33562 12.9373 5.3917 12.8202C5.41309 12.7755 5.45317 12.7222 5.53622 12.6745C5.62119 12.6258 5.7823 12.5661 6.06 12.5661V10.5661C4.89545 10.5661 3.99854 11.0986 3.5878 11.9565C3.20938 12.7469 3.30901 13.7271 3.9099 14.3924L5.3941 13.0518ZM6.06 12.5661H6.984V10.5661H6.06V12.5661ZM28.086 11.3461L27.0889 11.2694L27.0061 12.3461H28.086V11.3461ZM28.086 7.2541V6.2541H27.0016L27.0892 7.33492L28.086 7.2541ZM28.042 6.9681L27.0502 7.09644L27.163 7.9681H28.042V6.9681ZM27.8 7.2541L28.7967 7.17328L28.7222 6.2541H27.8V7.2541ZM27.8 11.3461V12.3461H28.726L28.797 11.4228L27.8 11.3461ZM28.042 11.6321V10.6321H27.163L27.0502 11.5038L28.042 11.6321ZM27.778 11.6321L28.7676 11.7753L28.9331 10.6321H27.778V11.6321ZM27.778 6.9681V7.9681H28.931L28.7679 6.82668L27.778 6.9681ZM29.626 18.0001C30.9475 18.0001 31.9334 17.558 32.4833 16.616C32.954 15.8097 32.98 14.8069 32.98 14.0521H30.98C30.98 14.8593 30.9179 15.3305 30.7561 15.6077C30.6735 15.7492 30.4824 16.0001 29.626 16.0001V18.0001ZM32.98 14.0521C32.98 13.323 32.9117 12.3826 32.403 11.6175C31.833 10.7602 30.8779 10.3461 29.626 10.3461V12.3461C30.42 12.3461 30.6419 12.581 30.7374 12.7247C30.8942 12.9606 30.98 13.3732 30.98 14.0521H32.98ZM29.626 10.3461H28.086V12.3461H29.626V10.3461ZM29.083 11.4228C29.1528 10.5152 29.1532 8.04242 29.0827 7.17328L27.0892 7.33492C27.1508 8.09378 27.1511 10.461 27.0889 11.2694L29.083 11.4228ZM28.086 8.2541H29.626V6.2541H28.086V8.2541ZM29.626 8.2541C30.335 8.2541 30.9494 8.12805 31.4616 7.85868C31.9859 7.58296 32.3453 7.18714 32.5775 6.74889C33.0064 5.93976 32.98 4.99726 32.98 4.5481H30.98C30.98 5.11094 30.9645 5.52144 30.8104 5.81231C30.7511 5.92406 30.6705 6.01499 30.5307 6.08852C30.3788 6.1684 30.1049 6.2541 29.626 6.2541V8.2541ZM32.98 4.5481C32.98 3.81256 32.9456 2.82026 32.4765 2.01138C31.9331 1.07446 30.9594 0.600098 29.626 0.600098V2.6001C30.4485 2.6001 30.6518 2.85174 30.7464 3.01482C30.9153 3.30594 30.98 3.78764 30.98 4.5481H32.98ZM29.626 0.600098H21.068V2.6001H29.626V0.600098ZM21.068 0.600098C20.1456 0.600098 19.1019 0.728089 18.3219 1.46399C17.5343 2.20714 17.252 3.3404 17.252 4.7461H19.252C19.252 3.53379 19.5086 3.09406 19.6945 2.9187C19.888 2.73611 20.2523 2.6001 21.068 2.6001V0.600098ZM17.252 4.7461V13.8541H19.252V4.7461H17.252ZM17.252 13.8541C17.252 15.2598 17.5343 16.3931 18.3219 17.1362C19.1019 17.8721 20.1456 18.0001 21.068 18.0001V16.0001C20.2523 16.0001 19.888 15.8641 19.6945 15.6815C19.5086 15.5061 19.252 15.0664 19.252 13.8541H17.252ZM21.068 18.0001H29.626V16.0001H21.068V18.0001ZM29.626 2.8641C30.3587 2.8641 30.4688 3.07045 30.5104 3.14283C30.6362 3.3621 30.694 3.76527 30.694 4.5481H32.694C32.694 3.83493 32.6747 2.8961 32.245 2.14737C31.7311 1.25174 30.8072 0.864098 29.626 0.864098V2.8641ZM30.694 4.5481C30.694 5.22411 30.6356 5.54603 30.5306 5.71343C30.5017 5.75942 30.3846 5.9681 29.626 5.9681V7.9681C30.7813 7.9681 31.6982 7.61578 32.2248 6.77627C32.6753 6.05817 32.694 5.17009 32.694 4.5481H30.694ZM29.626 5.9681H28.042V7.9681H29.626V5.9681ZM29.0337 6.83976C28.9028 5.828 28.6166 4.89119 27.8904 4.24419C27.1615 3.59481 26.191 3.4161 25.138 3.4161V5.4161C26.0209 5.4161 26.3814 5.57838 26.56 5.73751C26.7413 5.89901 26.9392 6.2382 27.0502 7.09644L29.0337 6.83976ZM25.138 3.4161C23.5768 3.4161 22.5997 4.61658 22.6739 5.89314C22.7103 6.51973 23 7.13359 23.5365 7.57963C24.072 8.0248 24.7907 8.2541 25.622 8.2541V6.2541C25.1552 6.2541 24.9197 6.12864 24.8151 6.0417C24.7115 5.95561 24.6753 5.85997 24.6705 5.77706C24.6653 5.68654 24.6967 5.60251 24.7523 5.54316C24.798 5.49436 24.9032 5.4161 25.138 5.4161V3.4161ZM25.622 8.2541H27.8V6.2541H25.622V8.2541ZM26.8032 7.33492C26.8648 8.09378 26.8651 10.461 26.8029 11.2694L28.797 11.4228C28.8668 10.5152 28.8672 8.04242 28.7967 7.17328L26.8032 7.33492ZM27.8 10.3461H25.622V12.3461H27.8V10.3461ZM25.622 10.3461C24.7907 10.3461 24.072 10.5754 23.5365 11.0206C23 11.4666 22.7103 12.0805 22.6739 12.7071C22.5997 13.9836 23.5768 15.1841 25.138 15.1841V13.1841C24.9032 13.1841 24.798 13.1058 24.7523 13.057C24.6967 12.9977 24.6653 12.9137 24.6705 12.8231C24.6753 12.7402 24.7115 12.6446 24.8151 12.5585C24.9197 12.4716 25.1552 12.3461 25.622 12.3461V10.3461ZM25.138 15.1841C26.191 15.1841 27.1615 15.0054 27.8904 14.356C28.6166 13.709 28.9028 12.7722 29.0337 11.7604L27.0502 11.5038C26.9392 12.362 26.7413 12.7012 26.56 12.8627C26.3814 13.0218 26.0209 13.1841 25.138 13.1841V15.1841ZM28.042 12.6321H29.626V10.6321H28.042V12.6321ZM29.626 12.6321C30.311 12.6321 30.4514 12.8094 30.4933 12.8674C30.5951 13.008 30.694 13.3262 30.694 14.0521H32.694C32.694 13.282 32.6168 12.3902 32.1136 11.6948C31.5505 10.9168 30.6569 10.6321 29.626 10.6321V12.6321ZM30.694 14.0521C30.694 14.8349 30.6362 15.2381 30.5104 15.4574C30.4688 15.5297 30.3587 15.7361 29.626 15.7361V17.7361C30.8072 17.7361 31.7311 17.3485 32.245 16.4528C32.6747 15.7041 32.694 14.7653 32.694 14.0521H30.694ZM29.626 15.7361H21.068V17.7361H29.626V15.7361ZM21.068 15.7361C20.279 15.7361 19.999 15.6102 19.8688 15.4841C19.739 15.3585 19.516 14.9925 19.516 13.8541H17.516C17.516 15.1357 17.7439 16.2107 18.4776 16.9211C19.2109 17.631 20.2069 17.7361 21.068 17.7361V15.7361ZM19.516 13.8541V4.7461H17.516V13.8541H19.516ZM19.516 4.7461C19.516 3.62191 19.7377 3.25204 19.8711 3.12202C20.0037 2.99285 20.2867 2.8641 21.068 2.8641V0.864098C20.1993 0.864098 19.2062 0.977349 18.4753 1.68968C17.7452 2.40116 17.516 3.47229 17.516 4.7461H19.516ZM21.068 2.8641H29.626V0.864098H21.068V2.8641ZM26.7883 11.4889C26.6776 12.2536 26.5043 12.5212 26.3698 12.6386C26.2362 12.7551 25.9401 12.8981 25.138 12.8981V14.8981C26.0958 14.8981 26.9987 14.7441 27.6846 14.1456C28.3696 13.548 28.6363 12.6826 28.7676 11.7753L26.7883 11.4889ZM25.138 12.8981C25.0557 12.8981 25.0058 12.8839 24.9799 12.8734C24.954 12.863 24.9432 12.8529 24.9397 12.8493C24.933 12.8423 24.9335 12.8385 24.9336 12.8377C24.9336 12.8374 24.9337 12.8342 24.9374 12.8274C24.9408 12.8212 24.952 12.803 24.9837 12.7786C25.0452 12.7313 25.2256 12.6321 25.622 12.6321V10.6321C24.1536 10.6321 23.0298 11.4429 22.9388 12.6925C22.8527 13.8752 23.7917 14.8981 25.138 14.8981V12.8981ZM25.622 12.6321H27.778V10.6321H25.622V12.6321ZM25.138 5.7021C25.9473 5.7021 26.2414 5.84221 26.3727 5.95587C26.5029 6.06861 26.6769 6.33173 26.788 7.10952L28.7679 6.82668C28.637 5.91047 28.371 5.04059 27.6817 4.44383C26.9935 3.84799 26.0886 3.7021 25.138 3.7021V5.7021ZM27.778 5.9681H25.622V7.9681H27.778V5.9681ZM25.622 5.9681C25.2256 5.9681 25.0452 5.86888 24.9837 5.82156C24.952 5.7972 24.9408 5.77901 24.9374 5.77281C24.9337 5.76601 24.9336 5.76282 24.9336 5.76248C24.9335 5.76172 24.933 5.7579 24.9397 5.75094C24.9432 5.74735 24.954 5.73721 24.9799 5.72679C25.0058 5.71634 25.0557 5.7021 25.138 5.7021V3.7021C23.7917 3.7021 22.8527 4.72497 22.9388 5.90772C23.0298 7.15733 24.1536 7.9681 25.622 7.9681V5.9681ZM35.9829 16.8021L36.2357 15.8345L36.2255 15.832L35.9829 16.8021ZM42.4289 14.8441L43.1919 14.1977L42.4236 13.2908L41.6615 14.203L42.4289 14.8441ZM48.4129 16.8901L48.5698 17.8777L48.5722 17.8773L48.4129 16.8901ZM49.8209 15.7461L50.7598 16.0904L50.7601 16.0895L49.8209 15.7461ZM44.6069 2.6561L45.3768 2.01784L45.3712 2.01123L44.6069 2.6561ZM40.2069 2.6781L40.9809 3.31134L40.9894 3.30092L40.9976 3.29027L40.2069 2.6781ZM34.9269 15.7681L35.8793 15.4633L35.8761 15.4531L35.8726 15.443L34.9269 15.7681ZM44.3869 2.8321L45.1597 2.19736L45.1573 2.19453L44.3869 2.8321ZM49.5569 15.6581L48.6206 15.307L49.5569 15.6581ZM48.3689 16.6261L48.521 17.6145L48.536 17.6122L48.551 17.6094L48.3689 16.6261ZM42.6049 14.6241L41.8025 14.0274L41.3332 14.6584L41.8358 15.2632L42.6049 14.6241ZM43.6609 11.6541L44.6591 11.7152V11.7142L43.6609 11.6541ZM41.1529 11.5441L42.1513 11.4865L42.1511 11.484L41.1529 11.5441ZM42.2529 14.6241L43.022 15.2633L43.535 14.646L43.0433 14.0115L42.2529 14.6241ZM36.0489 16.5381L35.7944 17.5052L35.8064 17.5082L36.0489 16.5381ZM35.1909 15.7021L36.1396 15.3859L36.1388 15.3835L35.1909 15.7021ZM40.4049 2.8541L39.6322 2.21936L39.6316 2.2201L40.4049 2.8541ZM41.4169 11.5441L40.4179 11.5888L40.4183 11.597L40.4188 11.6052L41.4169 11.5441ZM43.3969 11.6321L44.3949 11.6958L44.3955 11.6867L44.3959 11.6775L43.3969 11.6321ZM42.4289 14.4041L41.6211 14.9936L42.4443 16.1216L43.2471 14.979L42.4289 14.4041ZM35.7301 17.7696C38.537 18.5029 41.4898 17.528 43.1963 15.4852L41.6615 14.203C40.4641 15.6362 38.3128 16.3773 36.2357 15.8346L35.7301 17.7696ZM41.6659 15.4905C43.2532 17.364 45.9013 18.3017 48.5698 17.8777L48.256 15.9025C46.2166 16.2265 44.2886 15.4922 43.1919 14.1977L41.6659 15.4905ZM48.5722 17.8773C49.5904 17.7131 50.3862 17.1092 50.7598 16.0904L48.882 15.4018C48.7716 15.703 48.5995 15.8471 48.2537 15.9029L48.5722 17.8773ZM50.7601 16.0895C51.133 15.0696 51.0179 13.8048 50.735 12.5919C50.4432 11.3412 49.9304 9.97305 49.3291 8.6477C48.1309 6.0066 46.5141 3.38975 45.3768 2.01786L43.8371 3.29434C44.8337 4.49644 46.363 6.9506 47.5078 9.474C48.078 10.7309 48.5358 11.9684 48.7873 13.0462C49.0475 14.1619 49.0478 14.9486 48.8817 15.4027L50.7601 16.0895ZM45.3712 2.01123C44.6031 1.10089 43.6054 0.600098 42.4289 0.600098V2.6001C42.9685 2.6001 43.4227 2.80331 43.8426 3.30097L45.3712 2.01123ZM42.4289 0.600098C41.2718 0.600098 40.1398 1.13132 39.4162 2.06593L40.9976 3.29027C41.3301 2.86088 41.8701 2.6001 42.4289 2.6001V0.600098ZM39.433 2.04486C38.3712 3.34263 36.7673 5.99291 35.5515 8.65979C34.9408 9.99948 34.4104 11.381 34.0954 12.6307C33.7923 13.8332 33.6389 15.0972 33.9812 16.0932L35.8726 15.443C35.731 15.031 35.748 14.2573 36.0348 13.1195C36.3097 12.029 36.7886 10.7677 37.3713 9.48941C38.5425 6.92029 40.0627 4.43357 40.9809 3.31134L39.433 2.04486ZM33.9745 16.0729C34.2444 16.9162 34.8411 17.5474 35.7404 17.7722L36.2255 15.832C36.0688 15.7928 35.9615 15.72 35.8793 15.4633L33.9745 16.0729ZM42.4289 2.8641C42.8713 2.8641 43.2588 3.03738 43.6165 3.46967L45.1573 2.19453C44.4591 1.35081 43.5265 0.864098 42.4289 0.864098V2.8641ZM43.6142 3.46684C44.5585 4.61637 46.0727 7.04047 47.2184 9.53104C47.7892 10.7717 48.2511 11.9917 48.5074 13.0483C48.7743 14.1481 48.7741 14.8975 48.6206 15.307L50.4933 16.0092C50.8677 15.0107 50.7383 13.7608 50.451 12.5768C50.1533 11.3495 49.6361 10.001 49.0354 8.69516C47.8382 6.09273 46.2394 3.51183 45.1596 2.19736L43.6142 3.46684ZM48.6206 15.307C48.5516 15.4908 48.4528 15.5936 48.1868 15.6428L48.551 17.6094C49.473 17.4386 50.1662 16.8814 50.4933 16.0092L48.6206 15.307ZM48.2169 15.6377C46.2386 15.9421 44.4245 15.2491 43.374 13.985L41.8358 15.2632C43.3814 17.1231 45.9232 18.0141 48.521 17.6145L48.2169 15.6377ZM43.4074 15.2208C44.1711 14.1938 44.5822 12.9698 44.6591 11.7152L42.6628 11.593C42.6076 12.4944 42.3148 13.3384 41.8025 14.0274L43.4074 15.2208ZM44.6591 11.7142C44.7028 10.9888 44.4595 10.3551 44.0071 9.90268C43.5723 9.46792 42.9985 9.25357 42.4489 9.23048C41.9006 9.20744 41.3025 9.37281 40.8394 9.79586C40.3541 10.2392 40.1111 10.8801 40.1547 11.6042L42.1511 11.484C42.1449 11.3805 42.1604 11.3258 42.1685 11.3046C42.1761 11.2846 42.1833 11.2771 42.1883 11.2725C42.2024 11.2596 42.2587 11.2243 42.3649 11.2287C42.4698 11.2331 42.5505 11.2745 42.5929 11.3169C42.612 11.3361 42.6287 11.36 42.6413 11.3944C42.654 11.429 42.6689 11.4917 42.6627 11.594L44.6591 11.7142ZM40.1546 11.6017C40.2305 12.9174 40.6395 14.1747 41.4625 15.2367L43.0433 14.0115C42.5024 13.3135 42.2074 12.4588 42.1513 11.4865L40.1546 11.6017ZM41.4839 13.9849C40.3313 15.3716 38.3098 16.0725 36.2915 15.568L35.8064 17.5082C38.54 18.1917 41.3586 17.2646 43.022 15.2633L41.4839 13.9849ZM36.3034 15.571C36.2356 15.5532 36.2177 15.5348 36.214 15.5313C36.2084 15.5258 36.1753 15.493 36.1396 15.3859L34.2422 16.0183C34.4969 16.7822 35.0318 17.3045 35.7944 17.5052L36.3034 15.571ZM36.1388 15.3835C36.0182 15.0248 36.0361 14.2957 36.3215 13.1817C36.5933 12.1211 37.0605 10.8833 37.6288 9.62319C38.7719 7.08841 40.2531 4.61662 41.1783 3.4881L39.6316 2.2201C38.5548 3.53358 36.989 6.17679 35.8056 8.80101C35.2106 10.1204 34.6947 11.4731 34.3841 12.6854C34.0872 13.8442 33.9236 15.0704 34.243 16.0207L36.1388 15.3835ZM41.1777 3.48884C41.5087 3.08587 41.981 2.8641 42.4289 2.8641V0.864098C41.3369 0.864098 40.3132 1.39033 39.6322 2.21936L41.1777 3.48884ZM42.4159 11.4994C42.413 11.4347 42.4233 11.4131 42.4207 11.4199C42.4197 11.4227 42.4167 11.4295 42.4106 11.4385C42.4045 11.4476 42.3969 11.4565 42.3882 11.4646C42.3703 11.4812 42.355 11.4877 42.3496 11.4895C42.345 11.491 42.3483 11.4892 42.3586 11.4897C42.3688 11.4902 42.3788 11.4927 42.3863 11.4959C42.3932 11.4989 42.3942 11.5008 42.392 11.4985C42.3887 11.4952 42.3883 11.4927 42.3899 11.497C42.3915 11.5015 42.4006 11.5279 42.398 11.5867L44.3959 11.6775C44.4242 11.0544 44.2139 10.5 43.8202 10.0985C43.4414 9.71204 42.9408 9.51551 42.4553 9.49202C41.9704 9.46856 41.4395 9.61621 41.0273 9.99903C40.597 10.3986 40.3901 10.9665 40.4179 11.5888L42.4159 11.4994ZM42.399 11.5684C42.3446 12.4192 42.0766 13.1662 41.6107 13.8292L43.2471 14.979C43.9253 14.014 44.3172 12.913 44.3949 11.6958L42.399 11.5684ZM43.2367 13.8146C42.7582 13.1588 42.4697 12.3752 42.4151 11.483L40.4188 11.6052C40.4962 12.869 40.9117 14.0214 41.6211 14.9936L43.2367 13.8146ZM58.9951 14.2941L59.6234 13.5162L58.0909 12.2783L57.9962 14.2461L58.9951 14.2941ZM68.2351 14.0081L69.1709 13.6556L69.1662 13.6432L69.1612 13.6308L68.2351 14.0081ZM66.3651 11.4121L65.8748 10.5405L64.8231 11.1321L65.5997 12.0557L66.3651 11.4121ZM68.3011 8.8381L69.2787 9.04895L69.2805 9.04019L68.3011 8.8381ZM68.3011 4.9001L69.2805 4.69799L69.2777 4.68524L68.3011 4.9001ZM53.1211 6.6381L52.1211 6.62503V6.6381H53.1211ZM68.0371 4.9441L69.0152 4.73565L69.0125 4.72384L68.0371 4.9441ZM68.0371 8.7941L69.0129 9.01315L69.0151 9.00253L68.0371 8.7941ZM66.1891 11.1921L65.4511 11.8669L65.9748 12.4397L66.6597 12.0745L66.1891 11.1921ZM63.4171 9.4981L63.32 10.4934L63.3345 10.4948L63.3491 10.4958L63.4171 9.4981ZM62.9991 12.1161L63.185 11.1335L63.1764 11.1319L63.1677 11.1304L62.9991 12.1161ZM66.1231 11.5441L66.8579 10.8658L66.3526 10.3185L65.6835 10.6459L66.1231 11.5441ZM67.9711 14.0961L68.9024 13.7317L68.8972 13.7188L67.9711 14.0961ZM58.9951 13.9421L57.9952 13.9546L58.001 14.417L58.3571 14.7121L58.9951 13.9421ZM58.6651 9.9381L57.773 10.3899L57.7753 10.3944L58.6651 9.9381ZM56.1571 11.2141L57.0762 10.8202L57.0756 10.8188L56.1571 11.2141ZM57.6751 13.1501L56.978 13.8671L56.9845 13.8734L56.9912 13.8796L57.6751 13.1501ZM58.7091 14.0741H59.7091V13.6175L59.364 13.3184L58.7091 14.0741ZM53.3851 6.6381L52.3851 6.62431V6.6381H53.3851ZM56.3991 11.1041L55.4756 11.4877L55.4809 11.5005L55.4866 11.5132L56.3991 11.1041ZM58.4231 10.0701L59.3226 9.6332L59.3187 9.62518L59.3147 9.61723L58.4231 10.0701ZM58.7091 13.7221L58.0316 14.4576L59.7091 16.0027V13.7221H58.7091ZM57.8731 12.9521L58.5506 12.2166L57.8731 12.9521ZM63.0431 11.8521L63.2568 10.8752L63.2323 10.8698L63.2075 10.8657L63.0431 11.8521ZM63.3951 9.7621L63.4922 8.76682L63.4803 8.76567L63.4684 8.76479L63.3951 9.7621ZM65.9471 11.3241L66.355 12.2371L67.6382 11.6638L66.6759 10.6394L65.9471 11.3241ZM56.0031 18.0001C56.9433 18.0001 57.9726 17.9092 58.7639 17.2951C59.6068 16.6411 59.9333 15.6043 59.9939 14.3421L57.9962 14.2461C57.9469 15.2719 57.7013 15.5881 57.5378 15.7151C57.3226 15.882 56.9108 16.0001 56.0031 16.0001V18.0001ZM58.3668 15.072C60.8221 17.0552 63.4173 18.0001 66.4091 18.0001V16.0001C63.9009 16.0001 61.744 15.229 59.6234 13.5162L58.3668 15.072ZM66.4091 18.0001C67.5711 18.0001 68.5966 17.5826 69.1336 16.6307C69.6403 15.7325 69.5431 14.6438 69.1709 13.6556L67.2993 14.3606C67.5651 15.0664 67.4899 15.4737 67.3916 15.648C67.3236 15.7686 67.1171 16.0001 66.4091 16.0001V18.0001ZM69.1612 13.6308C68.9885 13.2069 68.6561 12.7121 68.3187 12.2558C67.9649 11.7774 67.5425 11.2585 67.1305 10.7685L65.5997 12.0557C66.0016 12.5337 66.3933 13.0158 66.7105 13.4449C67.0441 13.8961 67.2397 14.2153 67.309 14.3854L69.1612 13.6308ZM66.8554 12.2837C68.1505 11.5552 68.9738 10.4622 69.2786 9.04894L67.3236 8.62726C67.1444 9.45798 66.6917 10.081 65.8748 10.5405L66.8554 12.2837ZM69.2805 9.04019C69.594 7.52087 69.594 6.21733 69.2805 4.69801L67.3217 5.10219C67.5802 6.35487 67.5802 7.38333 67.3217 8.63601L69.2805 9.04019ZM69.2777 4.68524C68.9923 3.3879 68.3637 2.32733 67.3465 1.60845C66.3467 0.901892 65.0772 0.600098 63.6371 0.600098V2.6001C64.815 2.6001 65.6355 2.84831 66.1922 3.24175C66.7315 3.62287 67.1259 4.2123 67.3244 5.11496L69.2777 4.68524ZM63.6371 0.600098H58.2911V2.6001H63.6371V0.600098ZM58.2911 0.600098C56.4357 0.600098 54.8598 1.05523 53.7459 2.14065C52.6297 3.22836 52.1452 4.78516 52.1212 6.62503L54.121 6.65117C54.141 5.12504 54.5365 4.16283 55.1417 3.57305C55.7493 2.98097 56.7365 2.6001 58.2911 2.6001V0.600098ZM52.1211 6.6381V13.8981H54.1211V6.6381H52.1211ZM52.1211 13.8981C52.1211 15.0859 52.29 16.1985 53.0078 16.9824C53.7488 17.7916 54.836 18.0001 56.0031 18.0001V16.0001C54.9922 16.0001 54.6383 15.8016 54.4828 15.6318C54.3042 15.4367 54.1211 14.9982 54.1211 13.8981H52.1211ZM63.6371 2.8641C64.7506 2.8641 65.5111 3.09649 66.021 3.45492C66.5133 3.801 66.8747 4.33642 67.0617 5.16436L69.0125 4.72384C68.7375 3.50578 68.1419 2.5012 67.1712 1.81877C66.2181 1.14871 65.0096 0.864098 63.6371 0.864098V2.8641ZM67.0591 5.15253C67.3158 6.35712 67.3158 7.38108 67.0591 8.58567L69.0151 9.00253C69.3304 7.52312 69.3304 6.21508 69.0151 4.73566L67.0591 5.15253ZM67.0614 8.57506C66.8853 9.35922 66.4605 9.914 65.7185 10.3097L66.6597 12.0745C67.8977 11.4142 68.7048 10.385 69.0128 9.01314L67.0614 8.57506ZM66.9271 10.5173C66.5303 10.0833 66.0176 9.61869 65.4524 9.24614C64.9024 8.88361 64.2151 8.55019 63.4851 8.50042L63.3491 10.4958C63.5871 10.512 63.9338 10.6406 64.3518 10.9161C64.7545 11.1815 65.1439 11.5309 65.4511 11.8669L66.9271 10.5173ZM63.5142 8.50283C62.8168 8.43479 62.1872 8.62595 61.7103 9.02872C61.2474 9.41969 60.9878 9.95952 60.9139 10.4978C60.765 11.5816 61.3763 12.853 62.8305 13.1018L63.1677 11.1304C63.0125 11.1039 62.9621 11.0444 62.9397 11.0103C62.9061 10.9595 62.881 10.8737 62.8953 10.7699C62.9094 10.6674 62.955 10.5954 63.0008 10.5567C63.0327 10.5297 63.1154 10.4734 63.32 10.4934L63.5142 8.50283ZM62.8132 13.0987C63.8961 13.3035 65.394 13.0142 66.5626 12.4423L65.6835 10.6459C64.7842 11.086 63.7301 11.2367 63.185 11.1335L62.8132 13.0987ZM65.3883 12.2224C65.6214 12.4749 66 12.935 66.3517 13.4083C66.7262 13.9123 66.9788 14.311 67.045 14.4734L68.8972 13.7188C68.7213 13.2872 68.314 12.6959 67.957 12.2154C67.5771 11.7042 67.1528 11.1853 66.8579 10.8658L65.3883 12.2224ZM67.0398 14.4605C67.2926 15.1063 67.2157 15.412 67.1698 15.4962C67.1598 15.5146 67.058 15.7141 66.4091 15.7141V17.7141C67.4542 17.7141 68.4304 17.3636 68.9264 16.4525C69.3865 15.6072 69.2436 14.6039 68.9023 13.7317L67.0398 14.4605ZM66.4091 15.7141C63.9058 15.7141 61.7746 14.9465 59.6331 13.1721L58.3571 14.7121C60.8356 16.7657 63.4124 17.7141 66.4091 17.7141V15.7141ZM59.995 13.9296C59.9851 13.1346 60.0108 12.2359 59.9862 11.5651C59.9606 10.8701 59.8817 10.119 59.5549 9.48178L57.7753 10.3944C57.8885 10.6152 57.9636 10.9861 57.9875 11.6386C58.0124 12.3153 57.9831 12.9896 57.9952 13.9546L59.995 13.9296ZM59.5572 9.48626C59.2284 8.83704 58.706 8.3959 58.0813 8.21704C57.4758 8.04369 56.8586 8.14057 56.3537 8.3987C55.3273 8.92338 54.6325 10.2012 55.2386 11.6094L57.0756 10.8188C56.9886 10.6165 57.0115 10.4893 57.0416 10.4139C57.078 10.3224 57.156 10.2347 57.264 10.1795C57.3723 10.1241 57.4687 10.122 57.5308 10.1398C57.5736 10.152 57.6728 10.1922 57.773 10.3899L59.5572 9.48626ZM55.2379 11.608C55.6558 12.5829 56.1919 13.1028 56.978 13.8671L58.3722 12.4331C57.5743 11.6574 57.3184 11.3853 57.0762 10.8202L55.2379 11.608ZM56.9912 13.8796C57.3582 14.2238 57.7226 14.5424 58.0542 14.8298L59.364 13.3184C59.0356 13.0338 58.696 12.7364 58.359 12.4206L56.9912 13.8796ZM57.7091 14.0741C57.7091 15.0975 57.4866 15.385 57.3714 15.4822C57.2129 15.6158 56.8696 15.7361 56.0031 15.7361V17.7361C56.8966 17.7361 57.9063 17.6474 58.6608 17.011C59.4586 16.3382 59.7091 15.2947 59.7091 14.0741H57.7091ZM56.0031 15.7361C55.0583 15.7361 54.7833 15.5618 54.6797 15.449C54.5518 15.3098 54.3851 14.9489 54.3851 13.8981H52.3851C52.3851 15.0033 52.5263 16.0614 53.207 16.8022C53.9119 17.5694 54.9459 17.7361 56.0031 17.7361V15.7361ZM54.3851 13.8981V6.6381H52.3851V13.8981H54.3851ZM54.385 6.65189C54.4048 5.2139 54.7781 4.31759 55.3392 3.77154C55.9029 3.22308 56.8243 2.8641 58.2911 2.8641V0.864098C56.5239 0.864098 55.0143 1.29712 53.9445 2.33816C52.8721 3.38161 52.4094 4.87229 52.3852 6.62431L54.385 6.65189ZM58.2911 2.8641H63.6371V0.864098H58.2911V2.8641ZM57.3226 10.7205C57.2932 10.6498 57.287 10.601 57.2865 10.5728C57.2859 10.5446 57.2907 10.5247 57.2966 10.5099C57.3092 10.4776 57.3384 10.4426 57.3815 10.4205C57.4246 10.3983 57.4465 10.4059 57.4422 10.4046C57.4396 10.4039 57.4434 10.4039 57.4546 10.4135C57.4663 10.4237 57.4963 10.4536 57.5315 10.523L59.3147 9.61723C59.0276 9.05206 58.5699 8.65283 58.0104 8.48705C57.4678 8.32628 56.9163 8.41088 56.4672 8.6417C55.5493 9.1135 54.963 10.2536 55.4756 11.4877L57.3226 10.7205ZM57.5236 10.507C57.6143 10.6937 57.6832 11.0319 57.7071 11.6308C57.7309 12.2245 57.7091 12.8839 57.7091 13.7221H59.7091C59.7091 12.9763 59.7313 12.1947 59.7055 11.5509C59.68 10.9123 59.6059 10.2165 59.3226 9.6332L57.5236 10.507ZM59.3866 12.9866L58.5506 12.2166L57.1956 13.6876L58.0316 14.4576L59.3866 12.9866ZM58.5506 12.2166C57.7586 11.4871 57.5179 11.1553 57.3116 10.695L55.4866 11.5132C55.8523 12.3289 56.3156 12.8771 57.1956 13.6876L58.5506 12.2166ZM63.2075 10.8657C63.1861 10.8621 63.1721 10.8578 63.1641 10.8548C63.1562 10.8518 63.1527 10.8496 63.1523 10.8494C63.1519 10.8491 63.1529 10.8498 63.1546 10.8514C63.1563 10.8531 63.1576 10.8547 63.1584 10.8559C63.1609 10.8595 63.1506 10.8443 63.1548 10.812C63.1566 10.7983 63.1604 10.7881 63.1635 10.7821C63.165 10.7793 63.1661 10.7777 63.1667 10.7771C63.1669 10.7767 63.1671 10.7766 63.1672 10.7765C63.1672 10.7764 63.1673 10.7764 63.1673 10.7764C63.1673 10.7764 63.1675 10.7762 63.1678 10.776C63.1681 10.7758 63.1688 10.7754 63.1699 10.7747C63.172 10.7736 63.1771 10.7711 63.1862 10.7684C63.2035 10.7631 63.2458 10.7538 63.3218 10.7594L63.4684 8.76479C62.8621 8.72021 62.3057 8.88741 61.8794 9.24624C61.4641 9.59576 61.2335 10.0759 61.1714 10.5547C61.0464 11.5179 61.6123 12.6274 62.8787 12.8385L63.2075 10.8657ZM63.298 10.7574C63.5253 10.7795 63.8357 10.8976 64.2049 11.1399C64.5641 11.3756 64.9172 11.6883 65.2182 12.0088L66.6759 10.6394C66.295 10.2339 65.8231 9.80963 65.3023 9.4678C64.7915 9.13264 64.1669 8.83265 63.4922 8.76682L63.298 10.7574ZM65.5392 10.4111C65.0918 10.611 64.6179 10.757 64.1906 10.8356C63.7466 10.9172 63.4266 10.9124 63.2568 10.8752L62.8294 12.829C63.3636 12.9458 63.9786 12.908 64.5521 12.8026C65.1423 12.6942 65.7684 12.4992 66.355 12.2371L65.5392 10.4111ZM80.9073 6.4841L80.1673 7.15677L81.9073 9.07071V6.4841H80.9073ZM77.3873 12.1821L78.1507 11.5362L76.3873 9.45215V12.1821H77.3873ZM75.0993 9.2561L75.9202 8.68502L75.9161 8.67916L75.0993 9.2561ZM77.1233 11.8521H78.1233V11.4868L77.8878 11.2075L77.1233 11.8521ZM80.9073 6.9021H81.9073V6.5273L81.6609 6.24484L80.9073 6.9021ZM83.1953 9.3441L84.0256 8.78678L84.0209 8.77987L84.0162 8.77303L83.1953 9.3441ZM81.1713 6.8141H80.1713V7.19066L80.4196 7.47369L81.1713 6.8141ZM77.3873 11.7641H76.3873V12.1304L76.6239 12.41L77.3873 11.7641ZM81.1713 7.2321L81.9196 6.56879L80.1713 4.5963V7.2321H81.1713ZM82.9533 9.4981L83.7841 8.94164L83.7693 8.91946L83.7533 8.8981L82.9533 9.4981ZM75.3413 9.1021L74.5235 9.67759L74.5322 9.68998L74.5413 9.7021L75.3413 9.1021ZM77.1233 11.4341L76.3537 12.0727L78.1233 14.2052V11.4341H77.1233ZM84.2513 18.0001C85.5054 18.0001 86.5919 17.7024 87.2338 16.6965C87.5221 16.2447 87.6669 15.7251 87.746 15.2C87.8254 14.6735 87.8473 14.078 87.8473 13.4361H85.8473C85.8473 14.0482 85.8252 14.5252 85.7684 14.902C85.7114 15.2803 85.628 15.495 85.5478 15.6207C85.4526 15.7698 85.2411 16.0001 84.2513 16.0001V18.0001ZM87.8473 13.4361V4.0201H85.8473V13.4361H87.8473ZM87.8473 4.0201C87.8473 2.99667 87.4897 2.08254 86.7114 1.44888C85.9657 0.841725 84.9652 0.600098 83.8773 0.600098V2.6001C84.7033 2.6001 85.1878 2.78747 85.4486 2.99981C85.6769 3.18566 85.8473 3.48153 85.8473 4.0201H87.8473ZM83.8773 0.600098C82.7855 0.600098 81.7806 0.807597 81.0331 1.39312C80.2386 2.0155 79.9073 2.92509 79.9073 3.9321H81.9073C81.9073 3.37711 82.071 3.1207 82.2664 2.96758C82.5089 2.7776 82.989 2.6001 83.8773 2.6001V0.600098ZM79.9073 3.9321V6.4841H81.9073V3.9321H79.9073ZM81.6472 5.81143C80.7577 4.83299 79.5443 3.56552 78.2639 2.53661C77.6233 2.02182 76.9436 1.54837 76.2596 1.19993C75.5842 0.855859 74.8397 0.600098 74.0873 0.600098V2.6001C74.4018 2.6001 74.8234 2.71284 75.3518 2.98202C75.8716 3.24683 76.4334 3.63138 77.0111 4.09559C78.1672 5.02467 79.2968 6.19921 80.1673 7.15677L81.6472 5.81143ZM74.0873 0.600098C73.3624 0.600098 72.7055 0.710282 72.1472 0.999643C71.5644 1.30176 71.167 1.75875 70.9122 2.3049C70.6699 2.8244 70.5626 3.41071 70.5083 3.99492C70.4536 4.58319 70.4473 5.24368 70.4473 5.9341H72.4473C72.4473 5.23852 72.4547 4.66426 72.4997 4.18002C72.5451 3.69173 72.6233 3.3678 72.7248 3.1503C72.8138 2.95945 72.9183 2.85268 73.0676 2.7753C73.2415 2.68516 73.5471 2.6001 74.0873 2.6001V0.600098ZM70.4473 5.9341V14.6681H72.4473V5.9341H70.4473ZM70.4473 14.6681C70.4473 15.6834 70.79 16.5957 71.6028 17.2152C72.3632 17.7947 73.3861 18.0001 74.5053 18.0001V16.0001C73.5784 16.0001 73.0723 15.8205 72.8152 15.6245C72.6105 15.4685 72.4473 15.2148 72.4473 14.6681H70.4473ZM74.5053 18.0001C75.5701 18.0001 76.5571 17.7902 77.2914 17.1985C78.0672 16.5735 78.3873 15.667 78.3873 14.6681H76.3873C76.3873 15.2312 76.2234 15.4907 76.0366 15.6412C75.8085 15.825 75.3545 16.0001 74.5053 16.0001V18.0001ZM78.3873 14.6681V12.1821H76.3873V14.6681H78.3873ZM76.6239 12.828C77.6167 14.0014 78.829 15.2641 80.103 16.2423C81.3434 17.1947 82.7984 18.0001 84.2513 18.0001V16.0001C83.4821 16.0001 82.4731 15.5405 81.321 14.6559C80.2025 13.7971 79.0938 12.6508 78.1507 11.5362L76.6239 12.828ZM78.3873 8.3761C78.3873 7.33996 78.0474 6.47581 77.3723 5.94531C76.706 5.42176 75.871 5.3528 75.1785 5.59529C74.4843 5.8384 73.8772 6.41224 73.6631 7.23259C73.4466 8.06218 73.6727 8.96982 74.2825 9.83304L75.9161 8.67916C75.5468 8.15638 75.5694 7.84852 75.5983 7.73761C75.6297 7.61746 75.717 7.5258 75.8395 7.48291C75.9638 7.4394 76.0679 7.46394 76.1366 7.51789C76.1964 7.56489 76.3873 7.76224 76.3873 8.3761H78.3873ZM74.2784 9.82716C74.6502 10.3618 75.3955 11.3543 76.3587 12.4967L77.8878 11.2075C76.959 10.1059 76.2523 9.16245 75.9202 8.68504L74.2784 9.82716ZM76.1233 11.8521V14.6681H78.1233V11.8521H76.1233ZM76.1233 14.6681C76.1233 15.1348 75.9872 15.3263 75.848 15.4357C75.6628 15.5813 75.2708 15.7361 74.5053 15.7361V17.7361C75.4777 17.7361 76.3947 17.5499 77.0841 17.008C77.8193 16.4299 78.1233 15.5874 78.1233 14.6681H76.1233ZM74.5053 15.7361C73.6615 15.7361 73.2165 15.5768 73.0017 15.4179C72.8447 15.3018 72.7113 15.1161 72.7113 14.6681H70.7113C70.7113 15.6061 71.0398 16.4544 71.8124 17.0258C72.527 17.5544 73.479 17.7361 74.5053 17.7361V15.7361ZM72.7113 14.6681V5.9341H70.7113V14.6681H72.7113ZM72.7113 5.9341C72.7113 5.19961 72.7241 4.62053 72.7712 4.15515C72.8189 3.68341 72.8956 3.405 72.9785 3.23777C73.0452 3.1031 73.1137 3.04119 73.2193 2.99202C73.3579 2.92749 73.6141 2.8641 74.0873 2.8641V0.864098C73.4714 0.864098 72.8862 0.940958 72.3751 1.17892C71.831 1.43226 71.4416 1.8351 71.1866 2.34943C70.9477 2.8312 70.8388 3.38604 70.7813 3.9538C70.7232 4.52792 70.7113 5.19459 70.7113 5.9341H72.7113ZM74.0873 2.8641C74.3896 2.8641 74.8113 2.98095 75.3518 3.26824C75.8811 3.54958 76.4543 3.95664 77.0399 4.44295C78.2112 5.41549 79.3418 6.62853 80.1536 7.55936L81.6609 6.24484C80.8227 5.28367 79.6104 3.97771 78.3176 2.90425C77.6713 2.36756 76.9822 1.86987 76.2905 1.50221C75.61 1.1405 74.852 0.864098 74.0873 0.864098V2.8641ZM79.9073 6.9021V10.2241H81.9073V6.9021H79.9073ZM79.9073 10.2241C79.9073 10.8669 80.039 11.4119 80.2907 11.858C80.5445 12.3081 80.8896 12.6024 81.2277 12.786C81.5569 12.9647 81.8706 13.0343 82.0853 13.0606C82.1909 13.0735 82.2904 13.0781 82.3747 13.0751C82.3944 13.0744 82.4305 13.0727 82.4734 13.0675C82.489 13.0656 82.5407 13.0592 82.6046 13.0429C82.6288 13.0367 82.7125 13.0151 82.8105 12.9652C82.8572 12.9415 82.9611 12.8847 83.0661 12.7792C83.1712 12.6736 83.3574 12.4347 83.3575 12.0736C83.3575 11.707 83.166 11.4639 83.0511 11.3532C82.9393 11.2455 82.8291 11.19 82.7804 11.1673C82.6779 11.1194 82.5909 11.1006 82.5666 11.0954C82.5014 11.0814 82.4488 11.0771 82.4337 11.0758C82.3913 11.0724 82.3557 11.0721 82.3373 11.0721V13.0721C82.3326 13.0721 82.307 13.0721 82.2713 13.0692C82.2596 13.0683 82.2094 13.0643 82.1459 13.0506C82.1225 13.0456 82.036 13.027 81.9339 12.9793C81.8854 12.9566 81.7753 12.9012 81.6636 12.7937C81.5488 12.6831 81.3574 12.44 81.3575 12.0735C81.3575 11.7126 81.5436 11.4737 81.6486 11.3683C81.7536 11.2628 81.8573 11.2062 81.9038 11.1825C82.0014 11.1329 82.0846 11.1115 82.1079 11.1055C82.1702 11.0896 82.2196 11.0836 82.2321 11.0821C82.2687 11.0776 82.2956 11.0766 82.3033 11.0763C82.3394 11.0751 82.3461 11.0776 82.328 11.0754C82.2952 11.0714 82.2376 11.0585 82.1819 11.0282C82.135 11.0028 82.0813 10.9616 82.0326 10.8754C81.9818 10.7853 81.9073 10.5933 81.9073 10.2241H79.9073ZM82.3373 13.0721C83.2096 13.0721 84.0706 12.5949 84.4677 11.7261C84.8746 10.8361 84.6937 9.78221 84.0256 8.78678L82.365 9.90142C82.7748 10.512 82.6819 10.8221 82.6488 10.8946C82.606 10.9883 82.4989 11.0721 82.3373 11.0721V13.0721ZM84.0162 8.77303C83.6389 8.23074 82.8888 7.25515 81.9229 6.15451L80.4196 7.47369C81.3458 8.52905 82.0476 9.44546 82.3744 9.91516L84.0162 8.77303ZM82.1713 6.8141V3.9321H80.1713V6.8141H82.1713ZM82.1713 3.9321C82.1713 3.44386 82.3079 3.2646 82.4391 3.16418C82.6271 3.02026 83.0385 2.8641 83.8773 2.8641V0.864098C82.8681 0.864098 81.9264 1.03794 81.2234 1.57602C80.4636 2.1576 80.1713 3.01234 80.1713 3.9321H82.1713ZM83.8773 2.8641C84.301 2.8641 84.7784 2.93521 85.1148 3.12264C85.374 3.26711 85.5833 3.48479 85.5833 4.0201H87.5833C87.5833 2.70741 86.9345 1.84709 86.0883 1.37556C85.3191 0.946993 84.4436 0.864098 83.8773 0.864098V2.8641ZM85.5833 4.0201V13.4361H87.5833V4.0201H85.5833ZM85.5833 13.4361C85.5833 14.0504 85.5624 14.512 85.5109 14.8656C85.4589 15.222 85.3853 15.396 85.3298 15.4813C85.2873 15.5466 85.1697 15.7361 84.2513 15.7361V17.7361C85.3349 17.7361 86.3832 17.5296 87.0063 16.5719C87.2835 16.1457 87.4175 15.6514 87.49 15.154C87.5629 14.6537 87.5833 14.0758 87.5833 13.4361H85.5833ZM84.2513 15.7361C83.5114 15.7361 82.5104 15.2574 81.3441 14.3265C80.2179 13.4277 79.1 12.2401 78.1507 11.1182L76.6239 12.41C77.6106 13.5761 78.8246 14.8745 80.0964 15.8897C81.3282 16.8728 82.7911 17.7361 84.2513 17.7361V15.7361ZM78.3873 11.7641V8.3761H76.3873V11.7641H78.3873ZM80.4229 7.89541C81.2452 8.82316 81.8009 9.62825 82.1533 10.0981L83.7533 8.8981C83.4457 8.48795 82.8133 7.57704 81.9196 6.56879L80.4229 7.89541ZM82.1224 10.0546C82.2705 10.2756 82.3379 10.4459 82.3663 10.5622C82.3941 10.6763 82.3847 10.7381 82.3796 10.7595C82.3768 10.7712 82.3738 10.7773 82.3726 10.7795C82.3713 10.7819 82.3704 10.7829 82.37 10.7834C82.3689 10.7845 82.3651 10.7879 82.3568 10.7906C82.3394 10.7963 82.3266 10.7931 82.313 10.7818C82.3036 10.774 82.272 10.7449 82.24 10.6661C82.207 10.5849 82.1713 10.4446 82.1713 10.2241H80.1713C80.1713 11.0935 80.4587 11.8436 81.0381 12.3229C81.6095 12.7956 82.3434 12.8969 82.9722 12.6936C83.6076 12.4881 84.1477 11.9674 84.3251 11.2232C84.5007 10.4866 84.2877 9.69346 83.7841 8.94164L82.1224 10.0546ZM82.1713 10.2241V7.2321H80.1713V10.2241H82.1713ZM76.1591 8.52661C76.007 8.31049 75.9365 8.14105 75.906 8.02307C75.8761 7.90722 75.8836 7.83831 75.8906 7.80704C75.8975 7.77566 75.9084 7.76056 75.9153 7.75285C75.9238 7.74335 75.9344 7.73646 75.9451 7.73258C75.9503 7.73071 75.9546 7.72988 75.9577 7.72957C75.9592 7.72942 75.9603 7.72941 75.961 7.72943C75.9617 7.72945 75.962 7.7295 75.9621 7.7295C75.9621 7.7295 75.9618 7.72947 75.9615 7.72936C75.9611 7.72926 75.9609 7.72915 75.9608 7.7291C75.9602 7.72883 75.9624 7.72964 75.9673 7.73374C75.9747 7.74001 76.0103 7.77231 76.0469 7.86579C76.0845 7.96192 76.1233 8.12444 76.1233 8.3761H78.1233C78.1233 7.47609 77.8432 6.69656 77.2522 6.20108C76.6602 5.70483 75.9008 5.62201 75.2654 5.85162C74.6292 6.08152 74.104 6.62649 73.9381 7.37353C73.772 8.12154 73.993 8.92381 74.5235 9.67759L76.1591 8.52661ZM76.1233 8.3761V11.4341H78.1233V8.3761H76.1233ZM77.8928 10.7955C77.0556 9.78651 76.4964 8.97563 76.1413 8.5021L74.5413 9.7021C74.8461 10.1086 75.475 11.0137 76.3537 12.0727L77.8928 10.7955ZM95.6474 14.2941L96.2758 13.5162L94.7432 12.2783L94.6486 14.2461L95.6474 14.2941ZM104.887 14.0081L105.823 13.6556L105.819 13.6432L105.814 13.6308L104.887 14.0081ZM103.017 11.4121L102.527 10.5405L101.475 11.1321L102.252 12.0557L103.017 11.4121ZM104.953 8.8381L105.931 9.04895L105.933 9.04019L104.953 8.8381ZM104.953 4.9001L105.933 4.69799L105.93 4.68524L104.953 4.9001ZM89.7734 6.6381L88.7734 6.62503V6.6381H89.7734ZM104.689 4.9441L105.668 4.73565L105.665 4.72384L104.689 4.9441ZM104.689 8.7941L105.665 9.01315L105.667 9.00253L104.689 8.7941ZM102.841 11.1921L102.103 11.8669L102.627 12.4397L103.312 12.0745L102.841 11.1921ZM100.069 9.4981L99.9723 10.4934L99.9869 10.4948L100.001 10.4958L100.069 9.4981ZM99.6514 12.1161L99.8373 11.1335L99.8287 11.1319L99.82 11.1304L99.6514 12.1161ZM102.775 11.5441L103.51 10.8658L103.005 10.3185L102.336 10.6459L102.775 11.5441ZM104.623 14.0961L105.555 13.7317L105.55 13.7188L104.623 14.0961ZM95.6474 13.9421L94.6475 13.9546L94.6533 14.417L95.0094 14.7121L95.6474 13.9421ZM95.3174 9.9381L94.4253 10.3899L94.4276 10.3944L95.3174 9.9381ZM92.8094 11.2141L93.7286 10.8202L93.728 10.8188L92.8094 11.2141ZM94.3274 13.1501L93.6304 13.8671L93.6369 13.8734L93.6435 13.8796L94.3274 13.1501ZM95.3614 14.0741H96.3614V13.6175L96.0164 13.3184L95.3614 14.0741ZM90.0374 6.6381L89.0374 6.62431V6.6381H90.0374ZM93.0514 11.1041L92.1279 11.4877L92.1333 11.5005L92.1389 11.5132L93.0514 11.1041ZM95.0754 10.0701L95.9749 9.6332L95.9711 9.62518L95.967 9.61723L95.0754 10.0701ZM95.3614 13.7221L94.684 14.4576L96.3614 16.0027V13.7221H95.3614ZM94.5254 12.9521L95.2029 12.2166L94.5254 12.9521ZM99.6954 11.8521L99.9091 10.8752L99.8846 10.8698L99.8598 10.8657L99.6954 11.8521ZM100.047 9.7621L100.145 8.76682L100.133 8.76567L100.121 8.76479L100.047 9.7621ZM102.599 11.3241L103.007 12.2371L104.291 11.6638L103.328 10.6394L102.599 11.3241ZM92.6554 18.0001C93.5957 18.0001 94.6249 17.9092 95.4162 17.2951C96.2592 16.6411 96.5856 15.6043 96.6463 14.3421L94.6486 14.2461C94.5993 15.2719 94.3537 15.5881 94.1901 15.7151C93.975 15.882 93.5632 16.0001 92.6554 16.0001V18.0001ZM95.0191 15.072C97.4745 17.0552 100.07 18.0001 103.061 18.0001V16.0001C100.553 16.0001 98.3964 15.229 96.2758 13.5162L95.0191 15.072ZM103.061 18.0001C104.223 18.0001 105.249 17.5826 105.786 16.6307C106.293 15.7325 106.195 14.6438 105.823 13.6556L103.952 14.3606C104.217 15.0664 104.142 15.4737 104.044 15.648C103.976 15.7686 103.769 16.0001 103.061 16.0001V18.0001ZM105.814 13.6308C105.641 13.2069 105.308 12.7121 104.971 12.2558C104.617 11.7774 104.195 11.2585 103.783 10.7685L102.252 12.0557C102.654 12.5337 103.046 13.0158 103.363 13.4449C103.696 13.8961 103.892 14.2153 103.961 14.3854L105.814 13.6308ZM103.508 12.2837C104.803 11.5552 105.626 10.4622 105.931 9.04894L103.976 8.62726C103.797 9.45798 103.344 10.081 102.527 10.5405L103.508 12.2837ZM105.933 9.04019C106.246 7.52087 106.246 6.21733 105.933 4.69801L103.974 5.10219C104.233 6.35487 104.233 7.38333 103.974 8.63601L105.933 9.04019ZM105.93 4.68524C105.645 3.3879 105.016 2.32733 103.999 1.60845C102.999 0.901892 101.73 0.600098 100.289 0.600098V2.6001C101.467 2.6001 102.288 2.84831 102.845 3.24175C103.384 3.62287 103.778 4.2123 103.977 5.11496L105.93 4.68524ZM100.289 0.600098H94.9434V2.6001H100.289V0.600098ZM94.9434 0.600098C93.0881 0.600098 91.5122 1.05523 90.3983 2.14065C89.282 3.22836 88.7976 4.78516 88.7735 6.62503L90.7734 6.65117C90.7933 5.12504 91.1888 4.16283 91.7941 3.57305C92.4017 2.98097 93.3888 2.6001 94.9434 2.6001V0.600098ZM88.7734 6.6381V13.8981H90.7734V6.6381H88.7734ZM88.7734 13.8981C88.7734 15.0859 88.9423 16.1985 89.6602 16.9824C90.4012 17.7916 91.4884 18.0001 92.6554 18.0001V16.0001C91.6445 16.0001 91.2907 15.8016 91.1352 15.6318C90.9565 15.4367 90.7734 14.9982 90.7734 13.8981H88.7734ZM100.289 2.8641C101.403 2.8641 102.163 3.09649 102.673 3.45492C103.166 3.801 103.527 4.33642 103.714 5.16436L105.665 4.72384C105.39 3.50578 104.794 2.5012 103.824 1.81877C102.87 1.14871 101.662 0.864098 100.289 0.864098V2.8641ZM103.711 5.15253C103.968 6.35712 103.968 7.38108 103.711 8.58567L105.667 9.00253C105.983 7.52312 105.983 6.21508 105.667 4.73566L103.711 5.15253ZM103.714 8.57506C103.538 9.35922 103.113 9.914 102.371 10.3097L103.312 12.0745C104.55 11.4142 105.357 10.385 105.665 9.01314L103.714 8.57506ZM103.579 10.5173C103.183 10.0833 102.67 9.61869 102.105 9.24614C101.555 8.88361 100.867 8.55019 100.137 8.50042L100.001 10.4958C100.239 10.512 100.586 10.6406 101.004 10.9161C101.407 11.1815 101.796 11.5309 102.103 11.8669L103.579 10.5173ZM100.167 8.50283C99.4691 8.43479 98.8396 8.62595 98.3627 9.02872C97.8998 9.41969 97.6402 9.95952 97.5662 10.4978C97.4174 11.5816 98.0286 12.853 99.4828 13.1018L99.82 11.1304C99.6648 11.1039 99.6145 11.0444 99.592 11.0103C99.5584 10.9595 99.5334 10.8737 99.5476 10.7699C99.5617 10.6674 99.6073 10.5954 99.6532 10.5567C99.6851 10.5297 99.7677 10.4734 99.9723 10.4934L100.167 8.50283ZM99.4655 13.0987C100.548 13.3035 102.046 13.0142 103.215 12.4423L102.336 10.6459C101.437 11.086 100.382 11.2367 99.8373 11.1335L99.4655 13.0987ZM102.041 12.2224C102.274 12.4749 102.652 12.935 103.004 13.4083C103.378 13.9123 103.631 14.311 103.697 14.4734L105.55 13.7188C105.374 13.2872 104.966 12.6959 104.609 12.2154C104.229 11.7042 103.805 11.1853 103.51 10.8658L102.041 12.2224ZM103.692 14.4605C103.945 15.1063 103.868 15.412 103.822 15.4962C103.812 15.5146 103.71 15.7141 103.061 15.7141V17.7141C104.107 17.7141 105.083 17.3636 105.579 16.4525C106.039 15.6072 105.896 14.6039 105.555 13.7317L103.692 14.4605ZM103.061 15.7141C100.558 15.7141 98.427 14.9465 96.2855 13.1721L95.0094 14.7121C97.4879 16.7657 100.065 17.7141 103.061 17.7141V15.7141ZM96.6474 13.9296C96.6374 13.1346 96.6632 12.2359 96.6385 11.5651C96.613 10.8701 96.534 10.119 96.2073 9.48178L94.4276 10.3944C94.5409 10.6152 94.6159 10.9861 94.6399 11.6386C94.6647 12.3153 94.6355 12.9896 94.6475 13.9546L96.6474 13.9296ZM96.2095 9.48626C95.8807 8.83704 95.3584 8.3959 94.7337 8.21704C94.1282 8.04369 93.5109 8.14057 93.006 8.3987C91.9797 8.92338 91.2848 10.2012 91.8909 11.6094L93.728 10.8188C93.6409 10.6165 93.6638 10.4893 93.6939 10.4139C93.7304 10.3224 93.8083 10.2347 93.9164 10.1795C94.0247 10.1241 94.1211 10.122 94.1832 10.1398C94.226 10.152 94.3252 10.1922 94.4253 10.3899L96.2095 9.48626ZM91.8903 11.608C92.3081 12.5829 92.8442 13.1028 93.6304 13.8671L95.0245 12.4331C94.2266 11.6574 93.9708 11.3853 93.7286 10.8202L91.8903 11.608ZM93.6435 13.8796C94.0106 14.2238 94.375 14.5424 94.7065 14.8298L96.0164 13.3184C95.6879 13.0338 95.3483 12.7364 95.0114 12.4206L93.6435 13.8796ZM94.3614 14.0741C94.3614 15.0975 94.139 15.385 94.0237 15.4822C93.8652 15.6158 93.5219 15.7361 92.6554 15.7361V17.7361C93.5489 17.7361 94.5586 17.6474 95.3131 17.011C96.1109 16.3382 96.3614 15.2947 96.3614 14.0741H94.3614ZM92.6554 15.7361C91.7107 15.7361 91.4356 15.5618 91.3321 15.449C91.2042 15.3098 91.0374 14.9489 91.0374 13.8981H89.0374C89.0374 15.0033 89.1787 16.0614 89.8593 16.8022C90.5642 17.5694 91.5982 17.7361 92.6554 17.7361V15.7361ZM91.0374 13.8981V6.6381H89.0374V13.8981H91.0374ZM91.0373 6.65189C91.0572 5.2139 91.4304 4.31759 91.9916 3.77154C92.5552 3.22308 93.4766 2.8641 94.9434 2.8641V0.864098C93.1763 0.864098 91.6667 1.29712 90.5968 2.33816C89.5245 3.38161 89.0617 4.87229 89.0375 6.62431L91.0373 6.65189ZM94.9434 2.8641H100.289V0.864098H94.9434V2.8641ZM93.9749 10.7205C93.9455 10.6498 93.9393 10.601 93.9388 10.5728C93.9382 10.5446 93.9431 10.5247 93.9489 10.5099C93.9616 10.4776 93.9907 10.4426 94.0338 10.4205C94.077 10.3983 94.0988 10.4059 94.0946 10.4046C94.092 10.4039 94.0958 10.4039 94.1069 10.4135C94.1186 10.4237 94.1486 10.4536 94.1839 10.523L95.967 9.61723C95.6799 9.05206 95.2223 8.65283 94.6627 8.48705C94.1202 8.32628 93.5686 8.41088 93.1196 8.6417C92.2016 9.1135 91.6153 10.2536 92.1279 11.4877L93.9749 10.7205ZM94.1759 10.507C94.2666 10.6937 94.3355 11.0319 94.3595 11.6308C94.3832 12.2245 94.3614 12.8839 94.3614 13.7221H96.3614C96.3614 12.9763 96.3836 12.1947 96.3579 11.5509C96.3323 10.9123 96.2583 10.2165 95.9749 9.6332L94.1759 10.507ZM96.0389 12.9866L95.2029 12.2166L93.848 13.6876L94.684 14.4576L96.0389 12.9866ZM95.2029 12.2166C94.4109 11.4871 94.1702 11.1553 93.9639 10.695L92.1389 11.5132C92.5046 12.3289 92.968 12.8771 93.848 13.6876L95.2029 12.2166ZM99.8598 10.8657C99.8384 10.8621 99.8244 10.8578 99.8164 10.8548C99.8085 10.8518 99.805 10.8496 99.8046 10.8494C99.8042 10.8491 99.8053 10.8498 99.807 10.8514C99.8086 10.8531 99.8099 10.8547 99.8107 10.8559C99.8132 10.8595 99.8029 10.8443 99.8071 10.812C99.8089 10.7983 99.8127 10.7881 99.8159 10.7821C99.8173 10.7793 99.8185 10.7777 99.819 10.7771C99.8193 10.7767 99.8195 10.7766 99.8195 10.7765C99.8196 10.7764 99.8196 10.7764 99.8196 10.7764C99.8197 10.7764 99.8198 10.7762 99.8201 10.776C99.8205 10.7758 99.8212 10.7754 99.8223 10.7747C99.8244 10.7736 99.8294 10.7711 99.8385 10.7684C99.8558 10.7631 99.8981 10.7538 99.9741 10.7594L100.121 8.76479C99.5145 8.72021 98.9581 8.88741 98.5317 9.24624C98.1165 9.59576 97.8859 10.0759 97.8237 10.5547C97.6988 11.5179 98.2647 12.6274 99.531 12.8385L99.8598 10.8657ZM99.9503 10.7574C100.178 10.7795 100.488 10.8976 100.857 11.1399C101.216 11.3756 101.57 11.6883 101.871 12.0088L103.328 10.6394C102.947 10.2339 102.475 9.80963 101.955 9.4678C101.444 9.13264 100.819 8.83265 100.145 8.76682L99.9503 10.7574ZM102.191 10.4111C101.744 10.611 101.27 10.757 100.843 10.8356C100.399 10.9172 100.079 10.9124 99.9091 10.8752L99.4817 12.829C100.016 12.9458 100.631 12.908 101.204 12.8026C101.795 12.6942 102.421 12.4992 103.007 12.2371L102.191 10.4111Z" fill="#7B7B83"/>
</svg>
