<svg width="72" height="65" viewBox="0 0 72 65" fill="none" xmlns="http://www.w3.org/2000/svg">
<path d="M72 32.0669C72 27.2972 66.0269 22.777 56.8691 19.9739C58.9825 10.64 58.0432 3.21402 53.9046 0.836526C52.9507 0.278842 51.8353 0.0146757 50.6172 0.0146757V3.2874C51.2923 3.2874 51.8353 3.41949 52.2903 3.66898C54.2862 4.8137 55.1521 9.17244 54.477 14.7786C54.3155 16.1582 54.0514 17.6111 53.7285 19.0934C50.852 18.3889 47.7114 17.8459 44.4093 17.4937C42.428 14.7786 40.3734 12.3131 38.3041 10.1557C43.0885 5.70893 47.5793 3.27273 50.6319 3.27273V0C46.596 0 41.3127 2.87648 35.9706 7.86629C30.6286 2.90583 25.3453 0.0587039 21.3094 0.0587039V3.33143C24.3473 3.33143 28.8528 5.75296 33.6372 10.1704C31.5826 12.3278 29.5279 14.7786 27.576 17.4937C24.2593 17.8459 21.1186 18.3889 18.2422 19.108C17.9046 17.6404 17.6551 16.2169 17.479 14.852C16.7892 9.24582 17.6404 4.88708 19.6217 3.72768C20.062 3.46351 20.6343 3.34611 21.3094 3.34611V0.0733795C20.0766 0.0733795 18.9613 0.337546 17.9927 0.89523C13.8687 3.27273 12.9441 10.6841 15.0722 19.9886C5.94374 22.8064 0 27.3119 0 32.0669C0 36.8365 5.97309 41.3567 15.1309 44.1598C13.0175 53.4937 13.9568 60.9197 18.0954 63.2972C19.0493 63.8549 20.1647 64.119 21.3975 64.119C25.4333 64.119 30.7167 61.2426 36.0587 56.2527C41.4007 61.2132 46.6841 64.0603 50.7199 64.0603C51.9527 64.0603 53.0681 63.7962 54.0367 63.2385C58.1606 60.861 59.0852 53.4496 56.9572 44.1451C66.0563 41.342 72 36.8218 72 32.0669ZM52.892 22.278C52.349 24.1712 51.6739 26.1231 50.9107 28.075C50.309 26.9009 49.6779 25.7269 48.9882 24.5528C48.3131 23.3787 47.594 22.234 46.8749 21.1186C48.9588 21.4268 50.9694 21.8084 52.892 22.278ZM46.1704 37.9079C45.0257 39.8891 43.8516 41.7676 42.6335 43.5141C40.4468 43.7048 38.2307 43.8076 36 43.8076C33.7839 43.8076 31.5679 43.7048 29.3958 43.5287C28.1777 41.7823 26.989 39.9185 25.8443 37.9519C24.7289 36.0294 23.7163 34.0775 22.7917 32.1109C23.7016 30.1443 24.7289 28.1777 25.8296 26.2552C26.9743 24.2739 28.1484 22.3954 29.3665 20.649C31.5532 20.4582 33.7693 20.3555 36 20.3555C38.2161 20.3555 40.4321 20.4582 42.6042 20.6343C43.8223 22.3808 45.011 24.2446 46.1557 26.2112C47.2711 28.1337 48.2837 30.0856 49.2083 32.0522C48.2837 34.0187 47.2711 35.9853 46.1704 37.9079ZM50.9107 36C51.7032 37.9666 52.3783 39.9331 52.936 41.841C51.0135 42.3106 48.9882 42.7069 46.8895 43.0151C47.6086 41.885 48.3278 40.7256 49.0029 39.5369C49.678 38.3628 50.309 37.1741 50.9107 36ZM36.0294 51.6592C34.6645 50.2503 33.2996 48.68 31.9495 46.9629C33.2703 47.0216 34.6205 47.0656 35.9853 47.0656C37.3649 47.0656 38.7297 47.0363 40.0652 46.9629C38.7444 48.68 37.3795 50.2503 36.0294 51.6592ZM25.1105 43.0151C23.0265 42.7069 21.0159 42.3253 19.0934 41.8557C19.6364 39.9625 20.3115 38.0106 21.0746 36.0587C21.6763 37.2328 22.3074 38.4068 22.9971 39.5809C23.6869 40.755 24.3914 41.8997 25.1105 43.0151ZM35.956 12.4745C37.3208 13.8834 38.6857 15.4537 40.0359 17.1708C38.715 17.1121 37.3649 17.0681 36 17.0681C34.6205 17.0681 33.2556 17.0974 31.9201 17.1708C33.2409 15.4537 34.6058 13.8834 35.956 12.4745ZM25.0958 21.1186C24.3767 22.2487 23.6576 23.4081 22.9825 24.5968C22.3074 25.7709 21.6763 26.945 21.0746 28.119C20.2821 26.1525 19.607 24.1859 19.0493 22.278C20.9719 21.8231 22.9972 21.4268 25.0958 21.1186ZM11.8141 39.4929C6.61884 37.2768 3.25805 34.371 3.25805 32.0669C3.25805 29.7627 6.61884 26.8422 11.8141 24.6408C13.0762 24.0978 14.4558 23.6135 15.8793 23.1586C16.7159 26.0351 17.8166 29.0289 19.1814 32.0962C17.8312 35.1488 16.7452 38.128 15.9234 40.9898C14.4704 40.5349 13.0909 40.0359 11.8141 39.4929ZM19.7097 60.4647C17.7138 59.32 16.8479 54.9613 17.523 49.3551C17.6845 47.9755 17.9486 46.5226 18.2715 45.0404C21.148 45.7448 24.2886 46.2878 27.5907 46.64C29.572 49.3551 31.6266 51.8206 33.6959 53.978C28.9115 58.4248 24.4207 60.861 21.3681 60.861C20.7077 60.8463 20.15 60.7142 19.7097 60.4647ZM54.521 49.2817C55.2108 54.8879 54.3596 59.2466 52.3783 60.406C51.938 60.6702 51.3657 60.7876 50.6906 60.7876C47.6527 60.7876 43.1472 58.3661 38.3628 53.9486C40.4175 51.7913 42.4721 49.3404 44.424 46.6254C47.7407 46.2731 50.8814 45.7301 53.7578 45.011C54.0954 46.4933 54.3596 47.9168 54.521 49.2817ZM60.1712 39.4929C58.9091 40.0359 57.5296 40.5202 56.106 40.9751C55.2695 38.0987 54.1688 35.1048 52.8039 32.0375C54.1541 28.9849 55.2401 26.0057 56.062 23.1439C57.5149 23.5989 58.8944 24.0978 60.1859 24.6408C65.3812 26.8569 68.7419 29.7627 68.7419 32.0669C68.7273 34.371 65.3665 37.2915 60.1712 39.4929Z" fill="#61DAFB"/>
<path d="M35.9853 38.7741C39.6894 38.7741 42.6922 35.7714 42.6922 32.0672C42.6922 28.3631 39.6894 25.3604 35.9853 25.3604C32.2812 25.3604 29.2784 28.3631 29.2784 32.0672C29.2784 35.7714 32.2812 38.7741 35.9853 38.7741Z" fill="#61DAFB"/>
</svg>
