<svg width="42" height="66" viewBox="0 0 42 66" fill="none" xmlns="http://www.w3.org/2000/svg">
<path d="M41.4615 8.76618C39.9757 1.23385 30.3098 -1.24253 21.1551 2.96732C15.7071 5.46434 9.81168 9.38528 5.57786 14.5031C0.545204 20.5909 -0.269606 25.8945 0.0659038 28.1026C1.2322 35.9238 9.5241 41.0211 12.9271 44.8182V44.8388C11.9206 45.4786 4.57133 50.2869 2.84585 55.1984C1.02451 60.3781 3.13343 64.0927 4.5234 64.6086C8.8371 66.1564 13.2626 63.3704 15.6432 58.7891C17.9438 54.3729 17.7521 48.6566 16.7456 45.8087C18.1196 45.3341 19.7332 45.1277 21.7622 45.4373C27.5138 46.304 28.6482 50.9472 28.4405 52.8871C28.2168 54.8269 27.0186 55.9 26.6191 56.2302C26.2197 56.5604 26.0919 56.6636 26.1239 56.9112C26.1718 57.262 26.3635 57.2414 26.699 57.1795C27.1783 57.0763 29.7186 55.5905 29.8305 52.0203C29.9743 47.4597 26.5872 42.3624 20.6119 42.5069C18.1515 42.5688 16.6018 42.8577 15.4834 43.3943C15.4035 43.2705 15.3236 43.1466 15.2278 43.0228C11.5212 37.9256 4.68317 34.3142 4.98672 27.4629C5.09856 24.9659 5.76958 18.4034 18.1196 10.4584C28.2488 3.93724 36.3489 5.73261 37.7549 9.71546C39.752 15.3905 33.4252 25.9564 22.8966 27.4835C18.8864 28.0613 16.7775 26.0596 16.2503 25.3167C15.6911 24.5325 15.6112 24.4912 15.4035 24.6357C15.068 24.8833 15.2757 25.5643 15.4035 25.977C15.7231 27.0295 17.0012 28.9074 19.206 29.8361C21.1391 30.6615 25.8363 31.1155 31.54 28.2677C37.9466 25.0278 42.9154 16.1747 41.4615 8.76618ZM14.3491 47.1501C14.8284 49.4408 14.7804 51.5663 14.2852 53.4855C14.2372 53.6919 14.1733 53.9189 14.1094 54.1253C14.0455 54.3316 13.9656 54.538 13.9017 54.7444C13.5183 55.7556 13.007 56.7255 12.3839 57.5922C10.4827 60.2749 7.81459 61.2861 6.66427 60.44C5.43407 59.5114 6.04118 55.7349 8.26194 52.7013C10.6425 49.4614 14.0615 47.3565 14.0615 47.3565V47.3358C14.1414 47.2946 14.2532 47.212 14.3491 47.1501Z" fill="#CD6799"/>
</svg>
