<svg width="125" height="25" viewBox="0 0 125 25" fill="none" xmlns="http://www.w3.org/2000/svg">
<path d="M0.152 24V21.152L9.368 7.104H1.016V3.136H15.16V5.984L5.944 20.032H15.256V24H0.152ZM20.163 24.384C18.435 24.384 17.1763 23.8187 16.387 22.688C15.619 21.5573 15.235 19.9893 15.235 17.984V8.128H19.939V17.376C19.939 18.528 20.099 19.3173 20.419 19.744C20.739 20.1707 21.2403 20.384 21.923 20.384C22.5203 20.384 23.0217 20.2453 23.427 19.968C23.8323 19.6907 24.2697 19.2427 24.739 18.624V8.128H29.443V24H25.603L25.251 21.792H25.155C24.4723 22.6027 23.7363 23.2427 22.947 23.712C22.179 24.16 21.251 24.384 20.163 24.384ZM31.0225 24V8.128H34.8625L35.1825 10.912H35.3105C35.8865 9.824 36.5798 9.024 37.3905 8.512C38.2012 8 39.0118 7.744 39.8225 7.744C40.2705 7.744 40.6332 7.776 40.9105 7.84C41.2092 7.88267 41.4758 7.95733 41.7105 8.064L40.9425 12.128C40.6438 12.0427 40.3665 11.9787 40.1105 11.936C39.8545 11.8933 39.5558 11.872 39.2145 11.872C38.6172 11.872 37.9878 12.0853 37.3265 12.512C36.6865 12.9387 36.1532 13.696 35.7265 14.784V24H31.0225ZM41.2125 24V8.128H45.9165V24H41.2125ZM43.5485 5.792C42.7592 5.792 42.1085 5.568 41.5965 5.12C41.0845 4.65067 40.8285 4.05333 40.8285 3.328C40.8285 2.60267 41.0845 2.016 41.5965 1.568C42.1085 1.12 42.7592 0.895998 43.5485 0.895998C44.3592 0.895998 45.0098 1.12 45.5005 1.568C46.0125 2.016 46.2685 2.60267 46.2685 3.328C46.2685 4.05333 46.0125 4.65067 45.5005 5.12C45.0098 5.568 44.3592 5.792 43.5485 5.792ZM55.7905 24V7.104H50.0625V3.136H66.2545V7.104H60.5265V24H55.7905ZM68.5012 24.384C67.7759 24.384 67.1146 24.256 66.5172 24C65.9412 23.7653 65.4506 23.4347 65.0452 23.008C64.6399 22.56 64.3199 22.048 64.0852 21.472C63.8719 20.896 63.7652 20.2667 63.7652 19.584C63.7652 17.92 64.4692 16.6187 65.8772 15.68C67.2852 14.7413 69.5572 14.112 72.6932 13.792C72.6506 13.088 72.4372 12.5333 72.0533 12.128C71.6906 11.7013 71.0719 11.488 70.1972 11.488C69.5146 11.488 68.8319 11.616 68.1492 11.872C67.4879 12.128 66.7732 12.48 66.0052 12.928L64.3092 9.824C65.3332 9.20533 66.3999 8.704 67.5092 8.32C68.6399 7.936 69.8346 7.744 71.0933 7.744C73.1412 7.744 74.6986 8.33067 75.7653 9.504C76.8533 10.656 77.3973 12.4587 77.3973 14.912V24H73.5573L73.2373 22.368H73.1093C72.4266 22.9653 71.7119 23.456 70.9653 23.84C70.2186 24.2027 69.3972 24.384 68.5012 24.384ZM70.1012 20.736C70.6346 20.736 71.0932 20.6187 71.4773 20.384C71.8613 20.1493 72.2666 19.8187 72.6932 19.392V16.608C71.0292 16.8427 69.8772 17.184 69.2372 17.632C68.5972 18.08 68.2772 18.6133 68.2772 19.232C68.2772 19.744 68.4372 20.128 68.7572 20.384C69.0986 20.6187 69.5466 20.736 70.1012 20.736ZM83.1363 24.384C82.3256 24.384 81.6429 24.256 81.0883 24C80.5336 23.744 80.0856 23.392 79.7443 22.944C79.4243 22.4747 79.1896 21.92 79.0403 21.28C78.8909 20.6187 78.8163 19.8827 78.8163 19.072V1.568H83.5203V19.264C83.5203 19.7547 83.6056 20.096 83.7763 20.288C83.9683 20.48 84.1603 20.576 84.3523 20.576C84.4589 20.576 84.5443 20.576 84.6083 20.576C84.6936 20.576 84.8003 20.5547 84.9283 20.512L85.5043 24C85.2483 24.1067 84.9176 24.192 84.5123 24.256C84.1283 24.3413 83.6696 24.384 83.1363 24.384ZM92.5165 24.384C91.3858 24.384 90.3298 24.2027 89.3485 23.84C88.3672 23.456 87.5138 22.912 86.7885 22.208C86.0632 21.4827 85.4978 20.608 85.0925 19.584C84.6872 18.56 84.4845 17.3867 84.4845 16.064C84.4845 14.784 84.6978 13.632 85.1245 12.608C85.5512 11.5627 86.1058 10.688 86.7885 9.984C87.4925 9.25867 88.2925 8.704 89.1885 8.32C90.0845 7.936 91.0125 7.744 91.9725 7.744C93.1032 7.744 94.0845 7.936 94.9165 8.32C95.7698 8.704 96.4738 9.23733 97.0285 9.92C97.6045 10.6027 98.0312 11.4133 98.3085 12.352C98.5858 13.2693 98.7245 14.272 98.7245 15.36C98.7245 15.7867 98.7032 16.192 98.6605 16.576C98.6178 16.96 98.5752 17.248 98.5325 17.44H89.0285C89.2418 18.592 89.7112 19.4453 90.4365 20C91.1832 20.5333 92.0898 20.8 93.1565 20.8C94.2872 20.8 95.4285 20.448 96.5805 19.744L98.1485 22.592C97.3378 23.1467 96.4312 23.584 95.4285 23.904C94.4472 24.224 93.4765 24.384 92.5165 24.384ZM88.9965 14.336H94.7245C94.7245 13.44 94.5218 12.7147 94.1165 12.16C93.7112 11.6053 93.0285 11.328 92.0685 11.328C91.3218 11.328 90.6605 11.5733 90.0845 12.064C89.5298 12.5547 89.1672 13.312 88.9965 14.336ZM99.415 24V8.128H103.255L103.575 10.144H103.703C104.386 9.504 105.132 8.94933 105.943 8.48C106.754 7.98933 107.703 7.744 108.791 7.744C110.519 7.744 111.767 8.30933 112.535 9.44C113.324 10.5707 113.719 12.1387 113.719 14.144V24H109.015V14.752C109.015 13.6 108.855 12.8107 108.535 12.384C108.236 11.9573 107.746 11.744 107.063 11.744C106.466 11.744 105.954 11.8827 105.527 12.16C105.1 12.416 104.631 12.7893 104.119 13.28V24H99.415ZM121.28 24.384C120.298 24.384 119.456 24.2347 118.752 23.936C118.069 23.6373 117.504 23.2213 117.056 22.688C116.629 22.1547 116.309 21.5147 116.096 20.768C115.904 20 115.808 19.1573 115.808 18.24V11.808H113.632V8.32L116.064 8.128L116.608 3.904H120.512V8.128H124.32V11.808H120.512V18.176C120.512 19.072 120.693 19.7227 121.056 20.128C121.44 20.512 121.941 20.704 122.56 20.704C122.816 20.704 123.072 20.672 123.328 20.608C123.605 20.544 123.85 20.4693 124.064 20.384L124.8 23.808C124.373 23.936 123.872 24.064 123.296 24.192C122.72 24.32 122.048 24.384 121.28 24.384Z" fill="#7B7B83"/>
</svg>
